<svg width="100" height="102" viewBox="0 0 100 102" fill="none" xmlns="http://www.w3.org/2000/svg">
<path d="M91.4876 37.1814C85.825 40.5242 86.2908 32.8249 84.4642 30.158C79.3313 22.6687 72.801 21.7006 64.9008 20.5407C68.545 9.88216 66.1064 4.36569 63.1198 0C62.9097 0.0547994 62.6905 0.109599 62.4805 0.173532C57.6673 1.54352 49.2373 5.37034 42.8166 11.9737C42.497 11.6449 42.1682 11.3161 41.8302 10.9873C36.0398 5.32468 22.3582 5.72654 21.8284 0.67586C21.7645 0.93159 21.6914 1.18732 21.6184 1.44305C19.0793 10.5763 14.2296 23.235 16.8417 32.4778C16.4307 32.697 16.0288 32.9253 15.6361 33.1993C10.6859 36.6425 2.71257 37.3458 0.557128 37.4645C0.200931 37.4919 0 37.5011 0 37.5011C0 37.5011 3.2149 52.8175 16.7138 59.092C12.7591 61.8229 7.89112 64.0971 3.39756 62.4987C3.08703 62.3891 2.7765 62.2613 2.46597 62.1152C6.96866 67.1932 24.9794 75.7876 36.606 70.3259C44.9629 66.3895 52.0412 61.6128 60.736 61.5672C71.7781 66.2525 81.1123 66.6361 88.2636 66.0881C93.57 65.6771 93.4148 61.2018 92.6384 59.6035C91.9808 58.2792 90.7022 57.2106 92.9672 55.4935C93.9262 54.772 93.2504 52.2239 91.9534 52.4522C87.9074 53.1554 86.6653 51.2375 86.6653 51.2375C90.9122 51.7398 93.2869 50.1141 93.1134 49.082C92.9581 48.0591 91.99 48.3057 91.1406 47.1275C90.2821 45.9402 92.9946 43.8487 93.5152 42.3782C94.7756 38.8254 91.4785 37.1814 91.4785 37.1814M18.9789 57.4207C18.9789 57.4207 18.9058 57.4755 18.8693 57.512C13.9921 56.142 8.08292 53.0824 2.14631 41.264C4.11909 44.899 10.0922 53.1463 23.9108 53.74C21.9837 55.0826 20.3215 56.3703 18.9789 57.4207ZM33.9208 43.7573C29.0346 41.7846 25.5457 39.5104 23.098 37.0992C21.2804 35.3091 20.0292 33.4368 19.1981 31.5462C16.1567 24.6323 18.7414 17.481 19.5543 13.1336C18.8875 18.7505 19.8739 25.1255 23.235 31.0439C24.4679 33.2085 26.0115 35.3182 27.9203 37.3001C30.1579 39.6383 32.8888 41.8028 36.1676 43.7025C36.1676 43.7025 36.4873 44.5428 36.5695 44.7437C35.647 44.4241 34.7611 44.0861 33.9208 43.7482M64.4441 35.2817C63.887 34.7794 66.0424 26.9704 73.002 26.5503C75.7328 26.3859 77.9339 28.313 77.9887 28.8793C76.7375 28.2582 67.9148 25.0616 64.4441 35.2817ZM76.9749 40.6612C76.9384 40.2319 77.2489 39.8848 77.6599 39.8848C78.0709 39.8848 78.4362 40.2319 78.4728 40.6612C78.5093 41.0904 78.1988 41.4466 77.7878 41.4466C77.3768 41.4466 77.0206 41.0904 76.9841 40.6612M80.6648 41.337C80.2538 41.337 79.8884 40.99 79.861 40.5607C79.8245 40.1314 80.1259 39.7844 80.5369 39.7844C80.9479 39.7844 81.3132 40.1314 81.3406 40.5607C81.3772 40.99 81.0666 41.337 80.6556 41.337M80.82 38.9441C78.9842 39.5652 76.0159 39.6748 73.2486 37.5011C71.4585 36.0946 73.0568 36.259 73.0568 36.259C75.6415 38.8528 82.9755 38.5423 81.5872 33.5646C81.5872 33.5646 82.4183 33.9756 82.7015 35.0168C82.9846 36.058 82.6649 38.3322 80.8292 38.9533M83.0668 40.2958C82.6467 40.2958 82.2905 39.9488 82.2539 39.5195C82.2174 39.0903 82.5188 38.7432 82.9389 38.7432C83.3591 38.7432 83.7153 39.0903 83.7518 39.5195C83.7792 39.9488 83.4778 40.2958 83.0668 40.2958ZM84.0623 37.9121C83.6513 37.9121 83.286 37.565 83.2586 37.1357C83.2221 36.7065 83.5326 36.3594 83.9436 36.3594C84.3546 36.3594 84.7108 36.7065 84.7564 37.1357C84.793 37.565 84.4825 37.9121 84.0715 37.9121" fill="#F093A0"/>
<path d="M61.1927 59.7953C61.1196 59.7679 61.0374 59.7405 60.9644 59.7222C60.6082 59.6126 60.252 59.5122 59.9049 59.4208C59.8136 59.3934 59.7222 59.3752 59.6218 59.3478C59.2838 59.2656 58.9459 59.1834 58.608 59.1194C58.5167 59.1012 58.4345 59.0829 58.3431 59.0738C58.0965 59.0281 57.8408 58.9824 57.5851 58.9459C57.4481 58.9185 57.3019 58.9002 57.1649 58.882C56.8727 58.8454 56.5896 58.8089 56.2973 58.7724C56.1238 58.7541 55.9502 58.745 55.7767 58.7267C55.6214 58.7176 55.4753 58.6993 55.32 58.6902C54.6807 58.6536 54.0414 58.6354 53.402 58.6354C53.2102 58.6354 53.0185 58.6354 52.8358 58.6354C52.6988 58.6354 52.5618 58.6354 52.4248 58.6445C52.0869 58.6628 51.7489 58.681 51.4201 58.6993C50.1415 58.7998 48.8902 58.9733 47.6572 59.2108C45.7941 59.567 43.9857 60.0602 42.2321 60.6264C36.6243 62.4348 31.6284 64.9647 27.7742 66.0607C20.1753 68.2344 13.2158 67.1384 10.4758 66.0333C27.829 73.9792 36.9257 68.0791 43.1546 64.7455C43.456 64.5811 43.7665 64.4259 44.0679 64.2706C44.1866 64.2067 44.3145 64.1519 44.4332 64.0879C44.6159 63.9966 44.7985 63.9053 44.9812 63.8231C45.1365 63.75 45.3009 63.6769 45.4561 63.6039C45.6023 63.5399 45.7575 63.4669 45.9037 63.4029C46.0863 63.3207 46.269 63.2477 46.4517 63.1655C46.5795 63.1107 46.6982 63.0559 46.8261 63.0102C47.027 62.928 47.2371 62.8458 47.4472 62.7636C47.5476 62.7271 47.6572 62.6814 47.7577 62.6449C47.9769 62.5627 48.2052 62.4805 48.4244 62.3983C48.5158 62.3617 48.598 62.3343 48.6893 62.2978C48.9268 62.2156 49.1642 62.1334 49.4017 62.0512C49.4748 62.0238 49.5478 62.0055 49.6209 61.9781C49.8766 61.8959 50.1232 61.8137 50.3789 61.7407C50.4337 61.7224 50.4977 61.7041 50.5525 61.6859C50.8173 61.6037 51.0822 61.5306 51.3562 61.4576C51.4019 61.4484 51.4475 61.4301 51.4841 61.421C51.7672 61.348 52.0412 61.2749 52.3243 61.2109C52.3609 61.2109 52.3883 61.1927 52.4248 61.1836C52.7079 61.1105 53.0002 61.0466 53.2924 60.9918C53.3107 60.9918 53.3381 60.9826 53.3564 60.9735C53.6578 60.9096 53.9592 60.8548 54.2514 60.7908C54.2606 60.7908 54.2788 60.7908 54.288 60.7908C54.5894 60.736 54.8999 60.6812 55.2104 60.6356C55.2104 60.6356 55.2196 60.6356 55.2287 60.6356C55.5392 60.5899 55.8498 60.5442 56.1603 60.4986C56.7905 60.4164 57.4115 60.3616 58.0417 60.3159C58.2061 60.3068 58.3705 60.2885 58.5349 60.2794C59.6674 60.2154 60.7908 60.2246 61.9051 60.2794C61.9782 60.2794 62.0421 60.2885 62.1152 60.2976C62.3344 60.3159 62.5536 60.325 62.7728 60.3433C62.243 60.1332 61.7133 59.9414 61.1836 59.777" fill="#F093A0"/>
<mask id="mask0_56_588" style="mask-type:luminance" maskUnits="userSpaceOnUse" x="37" y="0" width="26" height="44">
<path d="M39.4099 20.9243C39.3642 21.0704 39.3094 21.2165 39.2638 21.3626C39.2364 21.4357 39.2181 21.5088 39.1907 21.5818C39.145 21.7371 39.0994 21.8924 39.0537 22.0476C39.0354 22.1116 39.0172 22.1846 38.9989 22.2486C38.9532 22.4221 38.8984 22.5865 38.8619 22.76C38.8436 22.8148 38.8345 22.8696 38.8162 22.9244C38.7706 23.1254 38.7158 23.3172 38.6701 23.5181C38.6701 23.5455 38.6518 23.582 38.6518 23.6094C38.3687 24.8424 38.1678 26.1211 38.049 27.4363C37.8025 30.1214 37.9029 32.9527 38.3961 35.7749C38.5879 36.8983 38.8436 38.0125 39.1633 39.1177C39.1633 39.1177 39.1542 39.1177 39.145 39.1177C39.62 40.7708 40.2593 42.4056 41.0356 43.9857C40.9534 43.8304 40.8803 43.666 40.8073 43.5107C37.912 34.6424 42.1864 27.9934 43.8761 26.5138C45.0634 25.4726 45.9493 26.0206 46.4973 27.2262C46.6252 26.8426 46.7622 26.459 46.9174 26.0845C47.6663 24.1757 48.6253 22.413 49.7579 20.8512V20.8421C49.7853 20.8055 49.8127 20.769 49.8401 20.7325C49.9588 20.5681 50.0867 20.4037 50.2054 20.2393C50.2602 20.1753 50.3059 20.1023 50.3607 20.0383C50.4885 19.8831 50.6073 19.7278 50.7351 19.5817C50.8082 19.4903 50.8904 19.399 50.9726 19.3077C51.0913 19.1798 51.2009 19.0428 51.3196 18.9149C51.4018 18.8236 51.484 18.7414 51.5662 18.6501C51.6576 18.5587 51.7398 18.4674 51.8311 18.3761C51.9133 18.2939 52.0046 18.2025 52.096 18.1203C52.1599 18.0564 52.233 17.9925 52.2969 17.9286C52.3334 17.892 52.37 17.8555 52.4065 17.819C52.5252 17.7094 52.644 17.5998 52.7627 17.4993C52.8814 17.3897 53.0093 17.2892 53.128 17.1796C53.2102 17.1157 53.2833 17.0518 53.3655 16.9878C53.4842 16.8965 53.603 16.796 53.7217 16.7047C53.7948 16.6499 53.8678 16.5951 53.9409 16.5403C54.1327 16.4033 54.3245 16.2572 54.5163 16.1293C59.1925 12.9327 63.0285 9.35244 62.4713 0.356201C57.5028 3.23317 49.3925 6.74033 43.9126 13.1427C43.6843 13.4076 43.4742 13.6725 43.255 13.9465C42.4239 14.9968 41.6658 16.111 40.9991 17.3166C40.7342 17.8007 40.4785 18.2939 40.241 18.8053C40.1497 19.0063 40.0584 19.2072 39.9762 19.4173C39.9488 19.4812 39.9214 19.5451 39.894 19.6091C39.83 19.7552 39.7752 19.9013 39.7204 20.0475C39.693 20.1205 39.6656 20.1936 39.6382 20.2758C39.5834 20.4128 39.5286 20.5589 39.483 20.6959C39.4556 20.769 39.4282 20.8512 39.4008 20.9243" fill="white"/>
</mask>
<g mask="url(#mask0_56_588)">
<mask id="mask1_56_588" style="mask-type:luminance" maskUnits="userSpaceOnUse" x="23" y="-8" width="54" height="61">
<path d="M40.5186 -7.32495L23.8885 39.3777L60.0685 52.2609L76.6985 5.55815L40.5186 -7.32495Z" fill="white"/>
</mask>
<g mask="url(#mask1_56_588)">
<mask id="mask2_56_588" style="mask-type:luminance" maskUnits="userSpaceOnUse" x="23" y="-8" width="54" height="61">
<path d="M40.5186 -7.32495L23.8885 39.3777L60.0685 52.2609L76.6985 5.55815L40.5186 -7.32495Z" fill="white"/>
</mask>
<g mask="url(#mask2_56_588)">
<mask id="mask3_56_588" style="mask-type:luminance" maskUnits="userSpaceOnUse" x="23" y="-8" width="54" height="61">
<path d="M40.5186 -7.32495L23.8885 39.3777L60.0685 52.2609L76.6985 5.55815L40.5186 -7.32495Z" fill="white"/>
</mask>
<g mask="url(#mask3_56_588)">
<mask id="mask4_56_588" style="mask-type:luminance" maskUnits="userSpaceOnUse" x="23" y="-8" width="54" height="61">
<path d="M40.5186 -7.32495L23.8885 39.3777L60.0685 52.2609L76.6985 5.55815L40.5186 -7.32495Z" fill="white"/>
</mask>
<g mask="url(#mask4_56_588)">
<path d="M40.5186 -7.32495L23.8885 39.3777L60.0685 52.2609L76.6985 5.55815L40.5186 -7.32495Z" fill="url(#paint0_linear_56_588)"/>
</g>
</g>
</g>
</g>
</g>
<mask id="mask5_56_588" style="mask-type:luminance" maskUnits="userSpaceOnUse" x="4" y="49" width="45" height="17">
<path d="M16.0562 65.2661C16.4033 65.2661 16.7595 65.2661 17.1157 65.2661C17.1613 65.2661 17.207 65.2661 17.2527 65.2661C17.618 65.2661 17.9925 65.2661 18.3761 65.2478C18.3852 65.2478 18.4035 65.2478 18.4126 65.2478C18.6227 65.2478 18.8327 65.2387 19.0428 65.2296C19.1067 65.2296 19.1707 65.2296 19.2255 65.2296C19.4172 65.2296 19.609 65.2113 19.8008 65.2022C19.8922 65.2022 19.9926 65.2022 20.084 65.193C20.2575 65.193 20.4402 65.1748 20.6228 65.1656C20.7507 65.1656 20.8786 65.1474 20.9973 65.1474C21.1526 65.1382 21.3078 65.1291 21.4722 65.12C21.7645 65.1017 22.0568 65.0834 22.3582 65.056C22.6413 65.0378 22.9244 65.0104 23.2075 64.983C23.4085 64.9647 23.6003 64.9373 23.7921 64.919C23.8743 64.919 23.9565 64.9008 24.0295 64.8917C24.2396 64.8643 24.4497 64.8368 24.6506 64.8094C24.7145 64.8094 24.7785 64.7912 24.8424 64.782C25.0525 64.7455 25.2534 64.7181 25.4635 64.6816C25.5183 64.6816 25.5822 64.6633 25.637 64.6542C25.8379 64.6177 26.0297 64.5811 26.2215 64.5446C26.2854 64.5354 26.3494 64.5172 26.4133 64.508C26.6051 64.4715 26.7878 64.435 26.9796 64.3893C27.0435 64.3711 27.1074 64.3619 27.1714 64.3528C27.354 64.3163 27.5367 64.2706 27.7194 64.2249C27.7833 64.2067 27.8472 64.1975 27.9203 64.1793C28.0938 64.1336 28.2765 64.0879 28.45 64.0423C28.514 64.024 28.587 64.0057 28.651 63.9966C28.8245 63.9509 28.9889 63.9053 29.1624 63.8596C29.2263 63.8413 29.2994 63.8231 29.3633 63.8048C29.5277 63.7591 29.683 63.7135 29.8474 63.6587C29.9205 63.6404 29.9935 63.6221 30.0666 63.5947C30.2219 63.5491 30.3771 63.4943 30.5324 63.4486C30.6055 63.4212 30.6785 63.4029 30.7516 63.3755C30.9069 63.3299 31.053 63.2751 31.1991 63.2294C31.2722 63.202 31.3544 63.1837 31.4275 63.1563C31.5736 63.1107 31.7197 63.0559 31.8659 63.0011C31.9389 62.9737 32.0211 62.9463 32.0942 62.9189C32.2403 62.8641 32.3773 62.8184 32.5143 62.7636C32.5965 62.7362 32.6696 62.7088 32.7426 62.6814C32.8796 62.6357 33.0166 62.5809 33.1536 62.5261C33.2358 62.4987 33.318 62.4622 33.4002 62.4348C33.5281 62.3891 33.6651 62.3343 33.793 62.2795C33.8752 62.243 33.9574 62.2156 34.0487 62.1791C34.1766 62.1334 34.3044 62.0786 34.4323 62.0238C34.5145 61.9873 34.6058 61.9599 34.688 61.9233C34.8068 61.8777 34.9346 61.8229 35.0534 61.7772C35.1447 61.7407 35.236 61.7041 35.3273 61.6676C35.4369 61.6219 35.5465 61.5763 35.6561 61.5306C35.6835 61.5215 35.7109 61.5032 35.7383 61.4941C35.8114 61.4667 35.8845 61.4302 35.9667 61.4028C36.058 61.3662 36.1493 61.3297 36.2407 61.2932C36.7065 61.1014 37.1723 60.9096 37.6381 60.7086C37.6746 60.6995 37.702 60.6812 37.7385 60.6721C37.8938 60.6082 38.0491 60.5442 38.2135 60.4803C38.2683 60.462 38.3231 60.4346 38.3778 60.4164C38.524 60.3524 38.6701 60.2976 38.8162 60.2428C38.8802 60.2154 38.9441 60.188 39.008 60.1698C39.145 60.115 39.282 60.0602 39.4282 60.0054C39.5012 59.978 39.5652 59.9506 39.6291 59.9232C39.7661 59.8684 39.9031 59.8136 40.0401 59.7679C40.1132 59.7405 40.1862 59.7131 40.2593 59.6857C40.3872 59.6309 40.5242 59.5852 40.652 59.5396C40.7251 59.5122 40.8073 59.4848 40.8804 59.4574C41.0082 59.4117 41.1361 59.366 41.2731 59.3112C41.3553 59.2838 41.4375 59.2564 41.5106 59.229C41.6384 59.1834 41.7663 59.1377 41.9033 59.092C41.9855 59.0646 42.0585 59.0372 42.1407 59.0098C42.2686 58.9642 42.3965 58.9276 42.5335 58.882C42.6157 58.8546 42.6979 58.8272 42.7801 58.7998C42.9079 58.7632 43.0358 58.7176 43.1637 58.681C43.2459 58.6536 43.3372 58.6262 43.4194 58.608C43.5473 58.5714 43.6751 58.5349 43.803 58.4984C43.8943 58.471 43.9765 58.4527 44.0679 58.4253C44.1957 58.3888 44.3236 58.3522 44.4515 58.3157C44.5428 58.2883 44.6341 58.2701 44.7255 58.2427C44.8533 58.2061 44.9903 58.1787 45.1182 58.1513C45.2095 58.133 45.3008 58.1057 45.3922 58.0874C45.52 58.06 45.657 58.0326 45.7849 57.9961C45.8762 57.9778 45.9767 57.9595 46.068 57.9413C46.1959 57.9139 46.3329 57.8865 46.4699 57.8682C46.5704 57.8499 46.6617 57.8317 46.7622 57.8134C46.8992 57.786 47.027 57.7677 47.164 57.7495C47.2645 57.7312 47.3558 57.7221 47.4563 57.7038C47.5933 57.6855 47.7303 57.6673 47.8673 57.649C47.9678 57.6307 48.0682 57.6216 48.1687 57.6125C48.2783 57.6033 48.3879 57.5851 48.4975 57.5759C47.2828 57.0005 46.1502 56.3521 45.1182 55.6397C43.7939 55.7493 42.5517 56.005 41.3918 56.3338C39.8392 56.7813 38.4235 57.3567 37.0901 57.9047C33.93 59.2108 31.2722 60.3524 28.5596 59.1012C28.4226 59.0372 28.2948 58.9642 28.1852 58.9002C26.3402 57.7403 28.313 55.8223 31.4731 54.1236C32.3682 53.6395 33.3546 53.1737 34.3775 52.7444C36.2772 51.9499 38.2957 51.2923 40.0675 50.8995C39.6382 50.3515 39.2364 49.7853 38.8619 49.2007C36.0671 50.0319 33.3454 51.2831 30.7607 52.6988C30.0301 53.1006 29.3085 53.5208 28.5962 53.9409C26.185 55.3839 23.9199 56.9001 21.865 58.2701C20.8968 58.9185 19.9744 59.5304 19.0976 60.0876C17.3349 61.211 15.7914 62.0969 14.5127 62.5353C10.3845 63.9692 7.46184 63.9692 4.9776 63.3299C7.43444 64.435 10.8046 65.2387 16.0014 65.3118C16.0288 65.3118 16.0562 65.3118 16.0836 65.3118" fill="white"/>
</mask>
<g mask="url(#mask5_56_588)">
<mask id="mask6_56_588" style="mask-type:luminance" maskUnits="userSpaceOnUse" x="3" y="43" width="49" height="29">
<path d="M48.3221 43.1717L3.4342 49.4084L6.45577 71.1558L51.3437 64.9191L48.3221 43.1717Z" fill="white"/>
</mask>
<g mask="url(#mask6_56_588)">
<mask id="mask7_56_588" style="mask-type:luminance" maskUnits="userSpaceOnUse" x="3" y="43" width="49" height="29">
<path d="M48.3221 43.1717L3.4342 49.4084L6.45577 71.1558L51.3437 64.9191L48.3221 43.1717Z" fill="white"/>
</mask>
<g mask="url(#mask7_56_588)">
<mask id="mask8_56_588" style="mask-type:luminance" maskUnits="userSpaceOnUse" x="3" y="43" width="49" height="29">
<path d="M48.3131 43.173L3.4342 49.4084L6.45452 71.1468L51.3334 64.9114L48.3131 43.173Z" fill="white"/>
</mask>
<g mask="url(#mask8_56_588)">
<mask id="mask9_56_588" style="mask-type:luminance" maskUnits="userSpaceOnUse" x="3" y="43" width="49" height="29">
<path d="M48.3222 43.173L3.44336 49.4084L6.46367 71.1468L51.3426 64.9114L48.3222 43.173Z" fill="white"/>
</mask>
<g mask="url(#mask9_56_588)">
<path d="M48.3222 43.173L3.44336 49.4084L6.46367 71.1468L51.3426 64.9114L48.3222 43.173Z" fill="url(#paint1_linear_56_588)"/>
</g>
</g>
</g>
</g>
</g>
<mask id="mask10_56_588" style="mask-type:luminance" maskUnits="userSpaceOnUse" x="20" y="1" width="20" height="41">
<path d="M21.7827 18.9424C21.8284 19.1707 21.8832 19.399 21.938 19.6274C21.938 19.6456 21.938 19.6639 21.9563 19.6913C22.0019 19.9105 22.0567 20.1388 22.1115 20.358C22.1115 20.3854 22.1298 20.4128 22.1298 20.4493C22.1846 20.6685 22.2394 20.8786 22.3033 21.0978C22.3033 21.1343 22.3216 21.1709 22.3307 21.2074C22.3855 21.4175 22.4495 21.6275 22.5134 21.8376C22.5225 21.8833 22.5408 21.9289 22.5499 21.9655C22.6139 22.1755 22.6687 22.3765 22.7326 22.5865C22.7509 22.6322 22.7691 22.687 22.7783 22.7327C22.8422 22.9336 22.9061 23.1345 22.9792 23.3446C22.9975 23.3994 23.0157 23.4542 23.034 23.509C23.0979 23.7008 23.171 23.9017 23.2441 24.1026C23.2623 24.1666 23.2897 24.2214 23.308 24.2853C23.3811 24.4771 23.445 24.6689 23.5181 24.8698C23.5455 24.9338 23.5637 24.9977 23.5911 25.0616C23.6642 25.2534 23.7373 25.4452 23.8195 25.6279C23.8469 25.701 23.8743 25.7649 23.9017 25.838C23.9747 26.0298 24.0569 26.2124 24.1391 26.4042C24.1665 26.4773 24.2031 26.5504 24.2305 26.6234C24.3127 26.8061 24.3949 26.9979 24.4771 27.1805C24.5136 27.2536 24.5501 27.3358 24.5775 27.4089C24.6597 27.5915 24.7419 27.7742 24.8332 27.9569C24.8698 28.0391 24.9063 28.1121 24.952 28.1943C25.0342 28.377 25.1255 28.5505 25.2168 28.7332C25.2534 28.8154 25.299 28.8976 25.3447 28.9798C25.436 29.1533 25.5274 29.336 25.6187 29.5095C25.6644 29.5917 25.71 29.6831 25.7557 29.7653C25.847 29.9388 25.9475 30.1123 26.048 30.295C26.0936 30.3772 26.1484 30.4685 26.1941 30.5507C26.2946 30.7242 26.395 30.8978 26.4955 31.0713C26.5503 31.1626 26.596 31.2448 26.6508 31.3362C26.6599 31.3544 26.6782 31.3727 26.6873 31.391C26.7786 31.5462 26.87 31.7015 26.9704 31.8476C27.0252 31.939 27.08 32.0303 27.144 32.1216C27.2536 32.2952 27.354 32.4596 27.4636 32.6331C27.5276 32.7244 27.5824 32.8158 27.6463 32.9071C27.7559 33.0715 27.8746 33.245 27.9842 33.4094C28.0481 33.5008 28.1121 33.6012 28.176 33.6925C28.2856 33.8569 28.4043 34.0213 28.5231 34.1857C28.5961 34.2771 28.6601 34.3775 28.7331 34.4689C28.8519 34.6333 28.9706 34.7977 29.0985 34.9621C29.1715 35.0625 29.2446 35.1539 29.3177 35.2543C29.4364 35.4187 29.5643 35.5831 29.6921 35.7384C29.7743 35.8389 29.8474 35.9302 29.9296 36.0307C30.0575 36.1951 30.1853 36.3503 30.3132 36.5147C30.3954 36.6152 30.4776 36.7156 30.5598 36.807C30.6968 36.9622 30.8247 37.1266 30.9616 37.2819C31.053 37.3824 31.1352 37.4828 31.2265 37.5833C31.2539 37.6107 31.2722 37.6381 31.2996 37.6655C31.4092 37.7934 31.5279 37.9212 31.6375 38.0491C31.7288 38.1496 31.8202 38.25 31.9115 38.3505C32.0485 38.5058 32.1946 38.661 32.3408 38.8163C32.4412 38.9168 32.5326 39.0172 32.633 39.1177C32.7792 39.273 32.9253 39.4191 33.0714 39.5744C33.1719 39.6748 33.2724 39.7753 33.382 39.8757C33.5281 40.0219 33.6834 40.1771 33.8386 40.3233C33.9482 40.4237 34.0578 40.5333 34.1583 40.6338C34.3135 40.7799 34.4688 40.9261 34.6241 41.0722C34.7337 41.1727 34.8524 41.2823 34.962 41.3827C35.1173 41.5289 35.2817 41.675 35.4461 41.8211C35.4917 41.8668 35.5374 41.9033 35.5922 41.949C35.3365 41.0996 35.1173 40.2685 34.9346 39.4465C34.551 38.9716 34.1857 38.4966 33.8478 38.0217C32.3682 35.9941 31.2813 34.0853 30.505 32.3317C28.3861 27.5367 28.5961 23.9656 29.5186 22.7144C31.1534 20.495 33.5646 21.4175 35.4917 23.6916C36.469 20.7599 37.9029 18.1112 39.6291 15.7457C35.7566 11.581 31.948 9.2246 29.0802 8.05555C24.6232 6.24716 22.3855 4.74018 21.6275 1.47961C20.8968 5.50737 20.2849 11.8184 21.7827 18.915C21.7827 18.9241 21.7827 18.9424 21.7827 18.9515" fill="white"/>
</mask>
<g mask="url(#mask10_56_588)">
<mask id="mask11_56_588" style="mask-type:luminance" maskUnits="userSpaceOnUse" x="0" y="-9" width="61" height="61">
<path d="M31.5282 -8.00331L0.556641 19.2634L29.0726 51.654L60.0442 24.3873L31.5282 -8.00331Z" fill="white"/>
</mask>
<g mask="url(#mask11_56_588)">
<mask id="mask12_56_588" style="mask-type:luminance" maskUnits="userSpaceOnUse" x="0" y="-8" width="61" height="60">
<path d="M31.5343 -7.99647L0.562683 19.2703L29.0787 51.6609L60.0503 24.3942L31.5343 -7.99647Z" fill="white"/>
</mask>
<g mask="url(#mask12_56_588)">
<mask id="mask13_56_588" style="mask-type:luminance" maskUnits="userSpaceOnUse" x="0" y="-8" width="61" height="60">
<path d="M31.5343 -7.99647L0.562683 19.2703L29.0787 51.6609L60.0503 24.3942L31.5343 -7.99647Z" fill="white"/>
</mask>
<g mask="url(#mask13_56_588)">
<mask id="mask14_56_588" style="mask-type:luminance" maskUnits="userSpaceOnUse" x="0" y="-8" width="61" height="60">
<path d="M31.5343 -7.99647L0.562683 19.2703L29.0787 51.6609L60.0503 24.3942L31.5343 -7.99647Z" fill="white"/>
</mask>
<g mask="url(#mask14_56_588)">
<path d="M31.5343 -7.99647L0.562683 19.2703L29.0787 51.6609L60.0503 24.3942L31.5343 -7.99647Z" fill="url(#paint2_linear_56_588)"/>
</g>
</g>
</g>
</g>
</g>
<mask id="mask15_56_588" style="mask-type:luminance" maskUnits="userSpaceOnUse" x="0" y="37" width="32" height="16">
<path d="M2.39288 39.6839C2.49335 39.8026 2.59382 39.9214 2.70341 40.0401C2.73995 40.0766 2.76735 40.1132 2.80388 40.1497C2.93175 40.2867 3.05048 40.4328 3.17834 40.5698C3.19661 40.5881 3.21488 40.6064 3.23314 40.6338C3.37014 40.789 3.51627 40.9443 3.6624 41.0996C3.6624 41.0996 3.68067 41.1178 3.6898 41.127C3.84507 41.2914 4.00033 41.4558 4.1556 41.6293C4.32 41.8028 4.4844 41.9672 4.64879 42.1407C4.97759 42.4878 5.32465 42.8257 5.68085 43.1728C5.68085 43.1728 5.68998 43.1819 5.68998 43.1911C5.86351 43.3555 6.02791 43.5199 6.21058 43.6934C6.21058 43.6934 6.22884 43.7117 6.23798 43.7208C6.41151 43.8852 6.57591 44.0405 6.75857 44.2049C6.77684 44.2231 6.7951 44.2323 6.81337 44.2505C6.97777 44.4058 7.1513 44.5519 7.3157 44.7072C7.3431 44.7346 7.3705 44.7529 7.3979 44.7803C7.5623 44.9264 7.7267 45.0634 7.88196 45.2095C7.91849 45.2369 7.95503 45.2734 7.99156 45.3008C8.14682 45.4378 8.31122 45.5657 8.46649 45.7027C8.51215 45.7392 8.55782 45.7758 8.61262 45.8214C8.75875 45.9402 8.91402 46.068 9.06928 46.1868C9.12408 46.2324 9.18801 46.2781 9.24281 46.3238C9.38894 46.4334 9.52594 46.5521 9.67207 46.6617C9.74514 46.7165 9.81821 46.7713 9.88214 46.8261C10.0191 46.9266 10.147 47.027 10.284 47.1275C10.3662 47.1914 10.4484 47.2462 10.5306 47.3102C10.6585 47.4015 10.7863 47.4928 10.9142 47.5842C11.0055 47.6481 11.106 47.712 11.1973 47.776C11.3161 47.8582 11.4348 47.9404 11.5535 48.0226C11.654 48.0956 11.7636 48.1595 11.8732 48.2326C11.9828 48.3057 12.0924 48.3787 12.2111 48.4518C12.3298 48.5249 12.4394 48.5979 12.5582 48.671C12.6586 48.7349 12.7682 48.7989 12.8687 48.8628C12.9966 48.9359 13.1153 49.0089 13.2432 49.082C13.3345 49.1368 13.435 49.2007 13.5354 49.2555C13.6724 49.3286 13.8003 49.4017 13.9373 49.4747C14.0286 49.5204 14.12 49.5752 14.2113 49.63C14.3483 49.7031 14.4944 49.7761 14.6314 49.8492C14.7136 49.8949 14.805 49.9405 14.8963 49.9862C15.0424 50.0593 15.1977 50.1232 15.3438 50.1963C15.426 50.2328 15.5082 50.2785 15.5904 50.315C15.7457 50.3881 15.9009 50.452 16.0562 50.5159C16.1384 50.5525 16.2115 50.589 16.2937 50.6164C16.4581 50.6803 16.6225 50.7443 16.7869 50.8082C16.8599 50.8356 16.933 50.8721 17.0061 50.8904C17.1796 50.9543 17.344 51.0091 17.5175 51.0731C17.5815 51.1004 17.6545 51.1187 17.7185 51.1461C17.9011 51.2101 18.0838 51.2648 18.2665 51.3196C18.3213 51.3379 18.3761 51.3562 18.44 51.3744C18.6866 51.4475 18.924 51.5023 19.1706 51.5662C21.1982 52.0594 23.4267 52.3243 25.8014 52.4796C27.6098 51.3014 29.6008 50.1141 31.7654 49.0455C21.0886 48.5066 16.522 43.7756 18.3852 42.2595C19.7186 41.1726 21.7371 41.0174 23.7647 41.2548C21.7736 40.1223 20.2484 38.7432 19.0976 37.1814C14.8232 37.3732 11.3161 37.8938 9.00535 38.3505C5.58038 39.0354 2.81301 38.4966 0.748901 37.702C0.931566 37.9303 1.11423 38.1678 1.31516 38.4053C1.42476 38.5422 1.53436 38.6792 1.65309 38.8162C1.69876 38.871 1.73529 38.9167 1.78096 38.9715C1.86316 39.0628 1.93622 39.1633 2.01842 39.2546C2.09149 39.346 2.16455 39.4282 2.24675 39.5195C2.30155 39.5834 2.34722 39.6382 2.40202 39.7022" fill="white"/>
</mask>
<g mask="url(#mask15_56_588)">
<mask id="mask16_56_588" style="mask-type:luminance" maskUnits="userSpaceOnUse" x="-5" y="25" width="43" height="39">
<path d="M5.86896 25.7007L-4.35327 49.8179L27.433 63.2907L37.6552 39.1735L5.86896 25.7007Z" fill="white"/>
</mask>
<g mask="url(#mask16_56_588)">
<mask id="mask17_56_588" style="mask-type:luminance" maskUnits="userSpaceOnUse" x="-5" y="25" width="43" height="39">
<path d="M5.87812 25.7007L-4.34412 49.8179L27.4421 63.2907L37.6644 39.1735L5.87812 25.7007Z" fill="white"/>
</mask>
<g mask="url(#mask17_56_588)">
<mask id="mask18_56_588" style="mask-type:luminance" maskUnits="userSpaceOnUse" x="-5" y="25" width="43" height="39">
<path d="M5.87455 25.7091L-4.34412 49.8179L27.4421 63.2907L37.6608 39.1819L5.87455 25.7091Z" fill="white"/>
</mask>
<g mask="url(#mask18_56_588)">
<mask id="mask19_56_588" style="mask-type:luminance" maskUnits="userSpaceOnUse" x="-5" y="25" width="43" height="39">
<path d="M5.87809 25.7007L-4.34058 49.8094L27.4457 63.2823L37.6643 39.1735L5.87809 25.7007Z" fill="white"/>
</mask>
<g mask="url(#mask19_56_588)">
<path d="M5.87809 25.7007L-4.34058 49.8094L27.4457 63.2823L37.6643 39.1735L5.87809 25.7007Z" fill="url(#paint3_linear_56_588)"/>
</g>
</g>
</g>
</g>
</g>
<mask id="mask20_56_588" style="mask-type:luminance" maskUnits="userSpaceOnUse" x="28" y="21" width="8" height="19">
<path d="M29.5095 22.7143C28.587 23.9747 28.3678 27.5367 30.4959 32.3316C31.2722 34.0852 32.359 35.9941 33.8386 38.0216C34.1766 38.4874 34.5419 38.9624 34.9255 39.4464C34.825 39.0172 34.7337 38.5879 34.6606 38.1678C34.3684 36.6334 34.204 35.1447 34.1309 33.7108C33.9665 30.0666 34.478 26.733 35.4826 23.7007C33.5555 21.4174 31.1443 20.495 29.5095 22.7235" fill="white"/>
</mask>
<g mask="url(#mask20_56_588)">
<mask id="mask21_56_588" style="mask-type:luminance" maskUnits="userSpaceOnUse" x="23" y="18" width="18" height="24">
<path d="M35.2705 18.7554L23.9341 21.757L29.0886 41.2249L40.4251 38.2233L35.2705 18.7554Z" fill="white"/>
</mask>
<g mask="url(#mask21_56_588)">
<mask id="mask22_56_588" style="mask-type:luminance" maskUnits="userSpaceOnUse" x="23" y="18" width="18" height="24">
<path d="M35.2705 18.7554L23.9341 21.757L29.0886 41.2249L40.4251 38.2233L35.2705 18.7554Z" fill="white"/>
</mask>
<g mask="url(#mask22_56_588)">
<mask id="mask23_56_588" style="mask-type:luminance" maskUnits="userSpaceOnUse" x="23" y="18" width="18" height="24">
<path d="M35.2705 18.7554L23.9341 21.757L29.0886 41.2249L40.4251 38.2233L35.2705 18.7554Z" fill="white"/>
</mask>
<g mask="url(#mask23_56_588)">
<mask id="mask24_56_588" style="mask-type:luminance" maskUnits="userSpaceOnUse" x="23" y="18" width="18" height="24">
<path d="M35.2705 18.7554L23.9341 21.757L29.0886 41.2249L40.4251 38.2233L35.2705 18.7554Z" fill="white"/>
</mask>
<g mask="url(#mask24_56_588)">
<path d="M35.2705 18.7554L23.9341 21.757L29.0886 41.2249L40.4251 38.2233L35.2705 18.7554Z" fill="url(#paint4_linear_56_588)"/>
</g>
</g>
</g>
</g>
</g>
<mask id="mask25_56_588" style="mask-type:luminance" maskUnits="userSpaceOnUse" x="17" y="41" width="21" height="9">
<path d="M23.7556 41.2457C24.4041 41.611 25.1073 41.9581 25.8562 42.2686C30.0027 43.9948 33.7656 45.246 37.2819 46.3786C37.3276 46.479 37.3824 46.5704 37.428 46.6708C35.437 47.3467 33.5373 48.1504 31.7563 49.0363C21.0796 48.4975 16.5129 43.7664 18.3761 42.2503C18.6958 41.9033 20.8147 40.7433 23.7556 41.2457Z" fill="white"/>
</mask>
<g mask="url(#mask25_56_588)">
<mask id="mask26_56_588" style="mask-type:luminance" maskUnits="userSpaceOnUse" x="14" y="34" width="27" height="22">
<path d="M19.3215 34.2796L14.3594 48.2379L35.5465 55.7698L40.5086 41.8115L19.3215 34.2796Z" fill="white"/>
</mask>
<g mask="url(#mask26_56_588)">
<mask id="mask27_56_588" style="mask-type:luminance" maskUnits="userSpaceOnUse" x="14" y="34" width="27" height="22">
<path d="M19.3129 34.2674L14.3539 48.2171L35.5324 55.7459L40.4914 41.7962L19.3129 34.2674Z" fill="white"/>
</mask>
<g mask="url(#mask27_56_588)">
<mask id="mask28_56_588" style="mask-type:luminance" maskUnits="userSpaceOnUse" x="14" y="34" width="27" height="22">
<path d="M19.319 34.2759L14.363 48.217L35.5415 55.7459L40.4975 41.8047L19.319 34.2759Z" fill="white"/>
</mask>
<g mask="url(#mask28_56_588)">
<mask id="mask29_56_588" style="mask-type:luminance" maskUnits="userSpaceOnUse" x="14" y="34" width="27" height="22">
<path d="M19.319 34.2668L14.3661 48.1993L35.536 55.7251L40.4889 41.7926L19.319 34.2668Z" fill="white"/>
</mask>
<g mask="url(#mask29_56_588)">
<path d="M19.319 34.2668L14.3661 48.1993L35.536 55.7251L40.4889 41.7926L19.319 34.2668Z" fill="url(#paint5_linear_56_588)"/>
</g>
</g>
</g>
</g>
</g>
<mask id="mask30_56_588" style="mask-type:luminance" maskUnits="userSpaceOnUse" x="27" y="50" width="19" height="10">
<path d="M40.0493 50.8447C40.5881 51.5389 41.1818 52.2056 41.8028 52.8358C42.7892 53.8313 43.8761 54.7538 45.0908 55.5849C43.7665 55.6945 42.5244 55.9502 41.3644 56.279C39.8118 56.7265 38.3961 57.3019 37.0627 57.8499C33.9026 59.156 31.2448 60.2976 28.5322 59.0464C28.3952 58.9824 28.2674 58.9094 28.1578 58.8454C26.3129 57.6855 28.2856 55.7675 31.4457 54.0688C32.3408 53.5847 33.3272 53.1189 34.3501 52.6896C34.3501 52.6896 38.8345 50.9178 40.0401 50.8447" fill="white"/>
</mask>
<g mask="url(#mask30_56_588)">
<mask id="mask31_56_588" style="mask-type:luminance" maskUnits="userSpaceOnUse" x="24" y="47" width="23" height="17">
<path d="M44.7253 47.5984L24.8899 51.1852L27.1408 63.6329L46.9762 60.0461L44.7253 47.5984Z" fill="white"/>
</mask>
<g mask="url(#mask31_56_588)">
<mask id="mask32_56_588" style="mask-type:luminance" maskUnits="userSpaceOnUse" x="24" y="47" width="23" height="17">
<path d="M44.7253 47.5984L24.8899 51.1852L27.1392 63.6239L46.9745 60.0371L44.7253 47.5984Z" fill="white"/>
</mask>
<g mask="url(#mask32_56_588)">
<mask id="mask33_56_588" style="mask-type:luminance" maskUnits="userSpaceOnUse" x="24" y="47" width="23" height="17">
<path d="M44.7253 47.5984L24.8899 51.1852L27.1375 63.6149L46.9729 60.0281L44.7253 47.5984Z" fill="white"/>
</mask>
<g mask="url(#mask33_56_588)">
<mask id="mask34_56_588" style="mask-type:luminance" maskUnits="userSpaceOnUse" x="24" y="47" width="23" height="17">
<path d="M44.7253 47.5984L24.8899 51.1852L27.1359 63.6059L46.9713 60.0191L44.7253 47.5984Z" fill="white"/>
</mask>
<g mask="url(#mask34_56_588)">
<path d="M44.7253 47.5984L24.8899 51.1852L27.1359 63.6059L46.9713 60.0191L44.7253 47.5984Z" fill="url(#paint6_linear_56_588)"/>
</g>
</g>
</g>
</g>
</g>
<mask id="mask35_56_588" style="mask-type:luminance" maskUnits="userSpaceOnUse" x="39" y="25" width="21" height="35">
<path d="M58.8546 58.334C58.8546 58.334 58.8363 58.3249 58.8272 58.3157C57.3568 57.3202 56.0233 56.279 54.8177 55.2104C54.7264 55.1282 54.6259 55.046 54.5346 54.9638C54.3428 54.7903 54.1601 54.6259 53.9775 54.4524C52.7901 53.329 51.7489 52.1782 50.8265 51C50.6164 50.726 50.4064 50.452 50.2054 50.178C49.7944 49.6118 49.4017 49.0364 49.0455 48.461C48.6345 47.8034 48.2601 47.1367 47.9221 46.4699C47.7029 46.0407 47.502 45.6023 47.3102 45.173C47.3102 45.1639 47.3102 45.1547 47.2919 45.1365C46.7987 44.0131 46.3969 42.8714 46.0772 41.7389C45.7027 40.3781 45.4561 39.0172 45.3192 37.6746C44.9447 34.0122 45.4196 30.4502 46.4973 27.2445C45.9493 26.0389 45.0634 25.4909 43.8761 26.5321C42.1864 28.0117 37.9121 34.6607 40.8073 43.529C40.8804 43.6843 40.9535 43.8487 41.0357 44.004C41.0813 44.1044 41.1361 44.2049 41.1818 44.3054C41.7755 45.4835 42.4513 46.6252 43.2185 47.7303C43.3281 47.8947 43.4468 48.0591 43.5656 48.2235C43.7574 48.4884 43.9492 48.7441 44.1501 48.9998C44.1866 49.0364 44.214 49.082 44.2506 49.1186C44.6798 49.6574 45.1273 50.178 45.6023 50.6895C45.6571 50.7443 45.7027 50.7991 45.7575 50.8539C45.9037 51 46.0407 51.1553 46.1868 51.3014C46.3603 51.4749 46.5339 51.6485 46.7165 51.822C46.8261 51.9225 46.9357 52.0321 47.0453 52.1325C47.1915 52.2695 47.3376 52.3974 47.4929 52.5344C47.5842 52.6166 47.6664 52.6897 47.7577 52.7719C48.0043 52.9819 48.2509 53.192 48.4975 53.3929C48.5158 53.4021 48.534 53.4203 48.5432 53.4295C48.9085 53.7217 49.283 54.0049 49.6666 54.288C49.6848 54.2971 49.694 54.3154 49.7122 54.3245C50.0867 54.5894 50.4703 54.8542 50.863 55.11C50.9087 55.1374 50.9635 55.1739 51.0092 55.2013C51.3288 55.4022 51.6576 55.6032 51.9864 55.795C52.0412 55.8315 52.1051 55.8589 52.1599 55.8954C52.507 56.0964 52.8632 56.2882 53.2285 56.48C54.1419 56.9549 55.11 57.3933 56.1238 57.7951C56.1238 57.7951 56.1329 57.7951 56.142 57.7951C57.302 58.2518 58.5349 58.6537 59.8227 59.0007C59.4939 58.7815 59.1651 58.5623 58.8272 58.334" fill="white"/>
</mask>
<g mask="url(#mask35_56_588)">
<mask id="mask36_56_588" style="mask-type:luminance" maskUnits="userSpaceOnUse" x="25" y="17" width="47" height="51">
<path d="M55.8705 17.7599L25.1304 31.3051L41.0657 67.4694L71.8058 53.9242L55.8705 17.7599Z" fill="white"/>
</mask>
<g mask="url(#mask36_56_588)">
<mask id="mask37_56_588" style="mask-type:luminance" maskUnits="userSpaceOnUse" x="25" y="17" width="47" height="51">
<path d="M55.8621 17.7636L25.1387 31.3014L41.074 67.4657L71.7974 53.9279L55.8621 17.7636Z" fill="white"/>
</mask>
<g mask="url(#mask37_56_588)">
<mask id="mask38_56_588" style="mask-type:luminance" maskUnits="userSpaceOnUse" x="25" y="17" width="47" height="51">
<path d="M55.8705 17.7599L25.1555 31.294L41.0908 67.4583L71.8058 53.9242L55.8705 17.7599Z" fill="white"/>
</mask>
<g mask="url(#mask38_56_588)">
<mask id="mask39_56_588" style="mask-type:luminance" maskUnits="userSpaceOnUse" x="25" y="17" width="47" height="51">
<path d="M55.8676 17.7552L25.1693 31.282L41.1045 67.4463L71.8029 53.9195L55.8676 17.7552Z" fill="white"/>
</mask>
<g mask="url(#mask39_56_588)">
<path d="M55.8676 17.7552L25.1693 31.282L41.1045 67.4463L71.8029 53.9195L55.8676 17.7552Z" fill="url(#paint7_linear_56_588)"/>
</g>
</g>
</g>
</g>
</g>
<mask id="mask40_56_588" style="mask-type:luminance" maskUnits="userSpaceOnUse" x="10" y="58" width="53" height="12">
<path d="M61.1927 59.7953C61.1197 59.7679 61.0375 59.7405 60.9644 59.7222C60.6082 59.6126 60.252 59.5121 59.905 59.4208C59.8136 59.3934 59.7223 59.3752 59.6218 59.3478C59.2839 59.2656 58.946 59.1834 58.608 59.1194C58.5167 59.1012 58.4345 59.0829 58.3432 59.0738C58.0966 59.0281 57.8408 58.9824 57.5851 58.9459C57.4481 58.9185 57.302 58.9002 57.165 58.882C56.8727 58.8454 56.5896 58.8089 56.2973 58.7724C56.1238 58.7541 55.9503 58.745 55.7767 58.7267C55.6215 58.7176 55.4753 58.6993 55.3201 58.6902C55.1283 58.681 54.9456 58.6628 54.7538 58.6536C54.2971 58.6354 53.8496 58.6262 53.393 58.6354C53.2012 58.6354 53.0094 58.6354 52.8267 58.6354C52.6897 58.6354 52.5527 58.6354 52.4157 58.6445C52.0778 58.6628 51.7398 58.681 51.411 58.6993C50.1324 58.7998 48.8811 58.9733 47.6481 59.2108C45.785 59.567 43.9766 60.0601 42.223 60.6264C36.6152 62.4348 31.6193 64.9647 27.7651 66.0607C20.1662 68.2344 13.2067 67.1384 10.4667 66.0333C27.8199 73.9792 36.9166 68.0791 43.1455 64.7455C43.4469 64.5811 43.7574 64.4258 44.0588 64.2706C44.1775 64.2066 44.3054 64.1518 44.4241 64.0879C44.6068 63.9966 44.7894 63.9052 44.9721 63.823C45.1274 63.75 45.2918 63.6769 45.447 63.6038C45.5932 63.5399 45.7484 63.4668 45.8946 63.4029C46.0772 63.3207 46.2599 63.2476 46.4426 63.1654C46.5704 63.1107 46.6892 63.0558 46.817 63.0102C47.018 62.928 47.228 62.8458 47.4381 62.7636C47.5385 62.7271 47.6481 62.6814 47.7486 62.6448C47.9678 62.5626 48.1961 62.4805 48.4153 62.3983C48.5067 62.3617 48.5889 62.3343 48.6802 62.2978C48.9177 62.2156 49.1551 62.1334 49.3926 62.0512C49.4657 62.0238 49.5387 62.0055 49.6118 61.9781C49.8675 61.8959 50.1141 61.8137 50.3699 61.7407C50.4246 61.7224 50.4886 61.7041 50.5434 61.6859C50.8082 61.6037 51.0731 61.5306 51.3471 61.4575C51.3928 61.4484 51.4384 61.4301 51.475 61.421C51.7581 61.3479 52.0321 61.2749 52.3152 61.2109C52.3518 61.2109 52.3792 61.1927 52.4157 61.1835C52.6988 61.1105 52.9911 61.0465 53.2834 60.9917C53.3016 60.9917 53.329 60.9826 53.3473 60.9735C53.6487 60.9095 53.9501 60.8547 54.2423 60.7908H54.2789C54.5803 60.7269 54.8908 60.6721 55.2013 60.6264C55.2013 60.6264 55.2105 60.6264 55.2196 60.6264C55.5301 60.5807 55.8407 60.5351 56.1512 60.4894C56.9458 60.3889 57.7404 60.3159 58.5258 60.2702C59.6584 60.2063 60.7817 60.2154 61.896 60.2702C61.9691 60.2702 62.033 60.2793 62.1061 60.2885C62.3253 60.3067 62.5445 60.3159 62.7637 60.3341C62.2339 60.1241 61.7042 59.9323 61.1745 59.7679" fill="white"/>
</mask>
<g mask="url(#mask40_56_588)">
<mask id="mask41_56_588" style="mask-type:luminance" maskUnits="userSpaceOnUse" x="7" y="48" width="60" height="37">
<path d="M60.8112 48.5742L7.60138 59.6128L12.8164 84.7511L66.0262 73.7125L60.8112 48.5742Z" fill="white"/>
</mask>
<g mask="url(#mask41_56_588)">
<mask id="mask42_56_588" style="mask-type:luminance" maskUnits="userSpaceOnUse" x="7" y="48" width="60" height="37">
<path d="M60.8202 48.5815L7.61035 59.6201L12.8254 84.7583L66.0352 73.7198L60.8202 48.5815Z" fill="white"/>
</mask>
<g mask="url(#mask42_56_588)">
<mask id="mask43_56_588" style="mask-type:luminance" maskUnits="userSpaceOnUse" x="7" y="48" width="60" height="37">
<path d="M60.8201 48.5815L7.61926 59.6182L12.8343 84.7565L66.0352 73.7198L60.8201 48.5815Z" fill="white"/>
</mask>
<g mask="url(#mask43_56_588)">
<mask id="mask44_56_588" style="mask-type:luminance" maskUnits="userSpaceOnUse" x="7" y="48" width="60" height="37">
<path d="M60.8202 48.5815L7.62823 59.6164L12.8433 84.7547L66.0352 73.7198L60.8202 48.5815Z" fill="white"/>
</mask>
<g mask="url(#mask44_56_588)">
<path d="M60.8202 48.5815L7.62823 59.6164L12.8433 84.7547L66.0352 73.7198L60.8202 48.5815Z" fill="url(#paint8_linear_56_588)"/>
</g>
</g>
</g>
</g>
</g>
<mask id="mask45_56_588" style="mask-type:luminance" maskUnits="userSpaceOnUse" x="48" y="1" width="29" height="64">
<path d="M75.5593 63.5308C73.1664 61.7042 68.2892 57.8865 64.3802 52.6349C61.3206 48.5249 58.8546 43.5473 58.6171 37.9395C58.5989 37.5559 58.5897 37.1815 58.5897 36.807C58.5897 36.7157 58.5897 36.6243 58.5897 36.533C58.5897 36.1677 58.5897 35.8115 58.5897 35.4553C58.5897 35.0991 58.608 34.7612 58.6171 34.4232C58.6171 34.341 58.6171 34.2588 58.6263 34.1766C58.6445 33.8387 58.6628 33.5099 58.6811 33.1902C58.7085 32.8706 58.7359 32.56 58.7633 32.2495C58.7633 32.1764 58.7815 32.1034 58.7907 32.0303C58.8546 31.4184 58.9368 30.8339 59.0281 30.2676C59.0281 30.2037 59.0464 30.1397 59.0555 30.0758C59.156 29.5187 59.2656 28.9798 59.3843 28.4592C59.3935 28.4044 59.4117 28.3496 59.4209 28.2948C59.5396 27.7834 59.6766 27.2902 59.8136 26.8152C59.8319 26.7696 59.841 26.7148 59.8593 26.6691C60.0054 26.2033 60.1515 25.7466 60.3159 25.3174C60.3342 25.2717 60.3525 25.226 60.3616 25.1804C60.5169 24.7511 60.6813 24.3401 60.8548 23.9383C60.8731 23.9017 60.8913 23.8561 60.9096 23.8195C61.074 23.4268 61.2475 23.0432 61.421 22.6779C61.4393 22.6413 61.4576 22.6048 61.4758 22.5683C61.5672 22.3856 61.6494 22.2029 61.7407 22.0294C61.832 21.8559 61.9142 21.6824 62.0056 21.5088C62.0238 21.4723 62.0421 21.4358 62.0604 21.3992C62.243 21.0522 62.4166 20.7142 62.5901 20.3854C62.6084 20.3398 62.6358 20.3032 62.654 20.2576C62.6632 20.2393 62.6723 20.221 62.6814 20.2028C62.7819 20.0201 62.8732 19.8374 62.9646 19.6548C63.0011 19.5908 63.0376 19.5269 63.065 19.463C63.1746 19.2529 63.2842 19.0428 63.3938 18.8328C63.4943 18.6319 63.5948 18.4309 63.6952 18.23C63.7226 18.1843 63.7409 18.1295 63.7683 18.0747C63.8414 17.9195 63.9144 17.7733 63.9784 17.6181C64.0058 17.5633 64.024 17.5085 64.0514 17.4537C64.1336 17.2527 64.2249 17.0609 64.298 16.86C64.3711 16.6591 64.4442 16.4673 64.5081 16.2663C64.5264 16.2115 64.5446 16.1567 64.5629 16.1019C64.6085 15.9558 64.6542 15.8005 64.6907 15.6544C64.709 15.5996 64.7273 15.5357 64.7364 15.4809C64.7912 15.28 64.8369 15.079 64.8734 14.8781C65.8507 9.40728 64.6725 3.93647 63.1198 1.79016C63.8962 4.12827 62.7271 11.7545 58.8181 15.8553C58.7176 15.9649 58.608 16.0745 58.4893 16.1933C58.4893 16.2024 58.471 16.2207 58.4527 16.2298C58.2518 16.4307 58.0417 16.6499 57.8134 16.8874C57.6034 17.1066 57.375 17.3441 57.1376 17.5815C57.1193 17.5998 57.1102 17.6089 57.0919 17.6272C56.9732 17.7459 56.8636 17.8738 56.7448 17.9925C56.7266 18.0108 56.7083 18.0382 56.6809 18.0565C56.5622 18.1843 56.4434 18.3031 56.3247 18.4309C56.3064 18.4492 56.2882 18.4766 56.2608 18.4949C56.142 18.6227 56.0233 18.7597 55.8954 18.8967C55.8954 18.8967 55.8954 18.915 55.8863 18.915C55.731 19.0885 55.5666 19.2712 55.4022 19.4538C55.3657 19.4904 55.3383 19.536 55.3018 19.5726C55.1648 19.7278 55.0369 19.8831 54.8999 20.0384C54.8542 20.1023 54.7994 20.1571 54.7446 20.221C54.6259 20.3672 54.5072 20.5133 54.3885 20.6594C54.3245 20.7325 54.2697 20.8056 54.2058 20.8878C54.0962 21.0248 53.9866 21.1709 53.8679 21.3079C53.8039 21.3901 53.74 21.4814 53.6761 21.5636C53.5665 21.7006 53.466 21.8468 53.3564 21.9929C53.2925 22.0842 53.2194 22.1755 53.1555 22.2669C53.0459 22.413 52.9454 22.5591 52.8449 22.7144C52.781 22.8057 52.7171 22.8971 52.6531 22.9884C52.5435 23.1528 52.4339 23.3172 52.3243 23.4907C52.2695 23.5729 52.2147 23.6551 52.1599 23.7373C51.9955 23.9931 51.8403 24.2488 51.685 24.5137C50.6073 26.3312 49.6848 28.3679 49.1277 30.6238C48.05 34.9164 48.2692 39.9671 51.1918 45.7393C51.2192 45.7941 51.2466 45.8489 51.2832 45.9037C51.7763 46.8536 52.3152 47.7669 52.8906 48.6345C53.1189 48.9725 53.3564 49.3104 53.5939 49.6392C53.9409 50.105 54.288 50.5525 54.6533 50.9909C54.9912 51.4019 55.3383 51.7946 55.6854 52.1782C55.9502 52.4705 56.2242 52.7536 56.4982 53.0276C57.3476 53.877 58.2244 54.6807 59.1286 55.4205C63.4669 58.9734 68.3806 61.3115 72.4631 62.8641C73.6413 63.3117 74.7464 63.6952 75.7511 64.024C76.0342 64.1154 76.3082 64.2067 76.5731 64.2889C76.3265 64.0971 75.9703 63.8231 75.541 63.4943" fill="white"/>
</mask>
<g mask="url(#mask45_56_588)">
<mask id="mask46_56_588" style="mask-type:luminance" maskUnits="userSpaceOnUse" x="24" y="-10" width="77" height="86">
<path d="M71.7358 -9.04713L24.3748 12.9371L53.3077 75.2678L100.669 53.2836L71.7358 -9.04713Z" fill="white"/>
</mask>
<g mask="url(#mask46_56_588)">
<mask id="mask47_56_588" style="mask-type:luminance" maskUnits="userSpaceOnUse" x="24" y="-10" width="77" height="86">
<path d="M71.7148 -9.02736L24.3786 12.9454L53.3115 75.2761L100.648 53.3033L71.7148 -9.02736Z" fill="white"/>
</mask>
<g mask="url(#mask47_56_588)">
<mask id="mask48_56_588" style="mask-type:luminance" maskUnits="userSpaceOnUse" x="24" y="-10" width="77" height="86">
<path d="M71.6846 -9.01661L24.3733 12.9446L53.3024 75.267L100.614 53.3058L71.6846 -9.01661Z" fill="white"/>
</mask>
<g mask="url(#mask48_56_588)">
<mask id="mask49_56_588" style="mask-type:luminance" maskUnits="userSpaceOnUse" x="24" y="-9" width="77" height="85">
<path d="M71.6757 -8.99232L24.3892 12.9573L53.3145 75.2714L100.601 53.3218L71.6757 -8.99232Z" fill="white"/>
</mask>
<g mask="url(#mask49_56_588)">
<path d="M71.6757 -8.99232L24.3892 12.9573L53.3145 75.2714L100.601 53.3218L71.6757 -8.99232Z" fill="url(#paint9_linear_56_588)"/>
</g>
</g>
</g>
</g>
</g>
<path d="M76.1621 52.2969C73.8971 52.2969 72.0613 50.3881 72.0613 48.0226C72.0613 45.6571 73.8971 43.7482 76.1621 43.7482C78.4271 43.7482 80.2629 45.6662 80.2629 48.0226C80.2629 50.379 78.4271 52.2969 76.1621 52.2969Z" fill="#F6C1D8"/>
<path d="M64.1793 92.1635C65.6406 91.4694 63.0741 90.8027 64.2249 89.8802C64.9921 89.2683 65.604 90.1085 65.8324 90.9214C66.0607 91.7251 66.2525 91.9078 66.4808 90.9853C66.7092 90.0629 66.8644 89.8802 67.6681 90.1177C68.4719 90.346 68.4719 91.3781 67.7777 91.7251C67.0836 92.063 66.6726 92.5288 67.4764 92.7572C68.2801 92.9855 68.2527 92.611 68.5815 93.0951C69.1934 93.9902 67.5951 95.1136 67.2389 94.4742C66.8096 93.6796 66.2982 93.4878 66.2982 94.4103C66.2982 94.7848 66.1429 95.7346 65.467 95.5976C64.6359 95.4149 64.0057 94.6295 64.6998 94.0541C65.12 93.707 65.0834 92.949 64.5263 93.497C64.0879 93.9354 62.9554 94.1728 62.9006 93.0677C62.8184 91.4877 63.3299 92.5562 64.161 92.1635" fill="#00B0C7"/>
<path d="M62.5535 87.1311C63.0833 86.7657 62.4348 86.3913 62.3526 86.0807C62.2156 86.0077 61.8411 86.099 61.9142 85.8433L61.8411 85.9255L61.9142 86.0077C61.7224 86.1081 61.6219 85.7885 61.4027 85.8433C60.736 86.0533 59.9232 85.9437 59.2382 86.0807C58.7906 85.3227 58.1148 86.1995 57.5668 85.9255V85.8433L57.4481 86.0533C57.2928 86.1355 57.3111 85.9072 57.2471 85.8889C57.1923 85.9529 57.1284 86.0533 57.0097 86.0077C56.6717 85.7245 56.2242 86.1629 55.868 86.0077C55.3931 86.3273 54.9273 85.8615 54.4067 86.0533C54.0322 86.4917 53.7217 85.8707 53.265 86.0533C53.0093 85.8433 53.2285 85.6515 53.2285 85.3409C53.7948 85.1583 53.055 84.656 53.5847 84.455C53.5664 84.1719 54.0779 83.9527 53.8222 83.6513C54.0962 83.3316 54.1418 82.811 53.9774 82.3635C53.8587 81.6785 53.0732 81.6237 52.5983 81.3954C52.5618 81.8612 51.9316 81.715 52.169 82.2813C52.0138 82.3635 51.8311 82.4366 51.6941 82.5644C52.2238 83.1124 51.1644 83.2677 51.4201 83.8979C51.4019 84.4642 51.2649 85.0304 50.7351 85.4871L50.6164 85.3409C50.3972 85.2222 50.1232 85.3044 49.8675 85.2587C49.7122 85.2861 49.7305 84.9391 49.5569 85.0943L49.3195 84.8569C49.2373 84.9573 49.1642 85.0213 49.0455 85.0213C48.7075 84.4367 48.6527 85.3409 48.26 85.14C48.324 84.9391 48.0043 84.9025 47.9038 84.7016L47.8216 84.7838L47.7029 84.6651C47.6481 84.6377 47.6207 84.7199 47.5842 84.7473C47.091 84.6286 46.9357 85.1491 46.5247 85.0669C46.3055 85.3135 46.205 84.7016 45.931 84.866L45.7758 84.7016C45.4013 84.5829 45.7027 84.1536 45.2186 84.1354C45.0451 84.0623 44.9629 84.2632 44.8625 84.3363C44.6889 84.0897 44.4697 84.4916 44.2323 84.2998L43.9217 84.7016C43.6843 84.8203 43.7482 84.5007 43.5473 84.5372C43.2733 84.7016 43.4742 85.2405 43.0723 85.14C42.8349 85.1583 42.6979 84.5372 42.3234 84.8203C41.6932 84.3546 42.022 85.4049 41.538 85.2222C41.3188 84.9573 41.1087 85.4414 40.8712 85.5236C40.6977 85.6241 40.8712 85.825 40.99 85.8889C41.0265 86.0077 40.9534 86.0716 40.9078 86.1721C40.6338 86.2725 40.7342 85.9163 40.5516 85.8889L40.4694 85.9711C40.4694 85.9711 40.4328 86.0899 40.5059 86.1355C40.3324 86.2177 40.2319 86.4552 40.0401 86.5009C39.9944 86.6653 40.1406 86.7383 40.1954 86.8662C40.1132 87.3503 39.8209 86.8114 39.6017 86.8662C39.419 87.0489 39.0902 86.9484 39.1359 87.3137C39.4282 87.4964 39.3094 87.6973 39.4464 87.9622C39.2546 88.1631 39.0902 88.227 38.8528 88.2818C38.7797 88.4006 38.8345 88.5467 38.9715 88.6106C38.7158 88.8938 39.2912 88.9942 38.8985 89.2591C39.7296 89.3961 38.5879 89.9441 39.0172 90.3094C39.3551 90.3916 39.4282 90.8757 39.7661 90.9579L39.6839 91.1953C39.7296 91.3323 39.8574 91.2593 39.9579 91.2775V91.1953C39.9579 91.1953 40.0401 91.1497 40.0766 91.1497C40.3324 91.3506 40.1771 91.6794 40.515 91.8347C40.926 91.8347 40.515 92.2548 40.8347 92.4009C41.0722 92.4831 41.0082 92.3187 41.1909 92.2365C41.3644 92.3644 41.3462 92.5836 41.5014 92.6475L41.7389 92.4831C41.7754 92.5379 41.8394 92.5653 41.8211 92.6019C42.0037 92.5836 42.1407 92.6841 42.2595 92.7845C42.2595 92.8667 42.296 92.9581 42.2229 93.022H42.8531C43.1271 92.9855 43.2915 92.6841 43.4925 93.022L43.529 92.9855L43.6477 93.1042C44.0587 93.0859 43.803 92.7206 44.0587 92.5197C44.077 92.6475 44.1592 92.7206 44.1409 92.8667C44.4423 93.1133 44.3967 92.5379 44.7346 92.6019C44.7529 92.6567 44.8351 92.6841 44.8168 92.7389H45.173V92.6384C45.4835 92.7206 45.5474 92.3918 45.6844 92.1909C45.8397 92.5105 46.1137 92.2913 46.3968 92.3918C46.3968 92.3096 46.3786 92.2457 46.3603 92.1909C46.6617 92.0082 46.4151 91.7707 46.5156 91.5059C46.6526 91.4876 46.753 91.7616 46.8718 91.5424C46.9905 91.6246 47.2188 91.5424 47.2645 91.7433C47.438 91.926 47.4746 91.6246 47.575 91.5424C47.7942 91.6246 47.9312 91.2775 48.1687 91.3415C48.2874 91.2227 48.2874 90.9762 48.1687 90.8574C48.2052 90.4738 48.4244 90.9396 48.5979 90.8118C48.8537 91.1131 49.1733 90.6565 49.4656 90.7295C49.8766 90.8939 49.4473 91.1314 49.4656 91.3689L49.7761 91.4967C49.8492 92.3827 49.6939 93.3873 49.4656 94.1728C49.3834 94.6203 49.3834 95.3053 49.2647 95.7072C49.4017 96.0725 49.0272 96.3282 48.945 96.5931C49.0272 96.6479 49.082 96.7575 49.0272 96.794C48.808 97.0132 48.7897 97.3694 48.6345 97.6343C48.5614 98.2827 48.4792 98.8216 48.397 99.4061C48.4427 99.5249 48.6984 99.671 48.4792 99.7715H48.5979C48.7167 99.9541 48.4609 99.9085 48.397 100.036C48.4792 100.155 48.5157 100.338 48.4427 100.475C48.3787 100.657 48.1687 100.74 48.05 100.84C47.9495 100.941 48.1687 101.023 48.0865 101.16C48.4792 101.379 47.9312 101.726 48.1687 102C48.4244 101.881 48.2509 101.662 48.4062 101.479C48.4701 101.361 48.5249 101.16 48.6801 101.16L48.5979 101.004C48.7715 100.74 48.7167 100.374 48.945 100.155C48.945 99.6345 49.3651 99.2874 49.3012 98.7668C49.7761 98.1823 49.6757 97.3694 49.9679 96.7118C49.9679 96.3465 50.4977 96.1273 50.2054 95.7437C50.4611 95.2414 50.5433 94.6751 50.6438 94.1362C50.2693 93.7344 51.1096 93.6887 50.8721 93.2503H50.9087C51.1279 93.0677 51.4749 92.8667 51.3653 92.5014C51.4293 92.2365 51.621 92.4192 51.758 92.4649C51.9316 92.3644 51.8128 92.2822 51.7946 92.1452C51.8676 91.8895 52.1873 91.926 52.306 91.7433C52.3243 91.6429 52.507 91.5424 52.3882 91.4237C52.5709 91.3049 52.644 91.1862 52.8632 91.1405C52.8814 90.8848 53.0184 90.3551 52.7444 90.0902C52.8084 89.9076 52.8449 89.6701 53.0915 89.6518C53.0367 89.387 53.1737 89.3504 53.128 89.0856C53.2102 88.9668 53.1098 88.6654 53.3655 88.7202C53.603 88.5741 53.466 88.2727 53.5664 88.0718L53.6852 88.154C54.0414 87.7704 54.4341 87.9713 54.8999 87.7978C55.0369 87.5146 55.3291 87.6791 55.457 87.3868C55.9502 87.1219 56.3795 87.6699 56.8727 87.5512C57.0279 87.2133 57.5394 87.5329 57.6581 87.1493C58.3248 87.2498 58.9733 87.1037 59.6492 87.1037C59.8227 86.9667 60.0602 87.2224 60.1606 86.9393C60.4529 87.4051 61.1013 87.2041 61.421 87.4233C61.7772 87.1402 62.2339 87.469 62.5627 87.1402" fill="#00B0C7"/>
<path d="M77.4316 92.4284C77.5868 92.6841 77.8426 92.3188 77.9796 92.5197C78.1714 92.2457 78.2992 92.6385 78.5093 92.5197C78.7833 92.6567 78.829 92.3371 79.0664 92.2914C79.5505 92.0905 79.7332 92.4467 80.2172 92.5197C80.0985 92.127 80.7287 92.0357 80.4455 91.6977H80.5369C80.6008 91.7434 80.5643 91.8347 80.5825 91.9261C80.6739 92.0174 80.7652 92.1544 80.9022 92.2001C81.2219 91.8804 81.6329 92.2457 81.9617 91.9717C81.8703 91.579 82.1626 91.5151 82.327 91.2319C82.3727 91.2776 82.4275 91.3507 82.5188 91.3233C82.6741 91.2502 82.5645 91.0767 82.6101 90.9579C82.1535 90.1542 83.0029 91.1863 83.1125 90.7296C83.1307 90.6383 83.1125 90.5469 83.0211 90.5013L83.4778 89.999C83.5965 89.935 83.4321 89.725 83.6148 89.725C83.5874 89.451 83.7061 88.9943 83.5235 88.7112C83.6331 88.5742 83.7061 88.7568 83.7974 88.5742C83.8248 88.5285 83.7792 88.5011 83.7518 88.4554C83.5052 88.4098 83.6604 88.2454 83.6148 88.0444C83.2221 87.8526 83.8157 87.5695 83.5235 87.3503C83.286 87.195 82.9663 87.1676 82.8293 86.848L82.738 86.9393L82.7837 86.985C82.8111 87.058 82.7106 87.0763 82.6923 87.122C82.601 87.0763 82.4823 87.058 82.4183 86.9393C82.5736 86.5923 82.1169 86.3822 82.2722 85.9712C81.7699 86.1539 81.8064 85.4415 81.3497 85.6972C81.094 85.6698 81.2127 85.3319 80.9296 85.3319C80.7195 85.6789 80.3542 85.2405 80.0985 85.3775V85.1492C79.9798 85.0396 79.8428 84.9939 79.6875 85.0122C79.4866 84.9391 79.4135 84.7108 79.3222 84.5555C79.1395 84.6469 78.8838 84.6469 78.765 84.7839C78.628 84.7565 78.5093 84.4825 78.3266 84.6469C78.1622 84.7839 77.9339 84.6286 77.8152 84.6012C77.7238 84.6286 77.6782 84.7199 77.6325 84.7839C77.1028 84.6469 77.258 85.3775 76.8927 85.3775C76.6827 85.5145 76.4817 85.4963 76.2899 85.6515C76.5913 85.9803 75.8789 86.1813 76.2443 86.5283C75.9063 86.6379 76.1712 87.058 75.8333 87.0763C75.9063 87.4508 75.5593 87.4508 75.3766 87.6791C75.2853 87.9805 75.1939 88.3915 75.2853 88.6655C75.3492 89.1222 75.6506 89.451 75.7876 89.862C76.1073 90.0903 75.5958 90.6017 76.1529 90.6017C76.4269 90.7661 76.0342 90.8757 76.1529 91.1041C76.1986 91.1315 76.2169 91.2228 76.2899 91.1954L76.3356 91.5607C76.6096 91.5607 76.774 91.7617 77.0754 91.6977C77.258 91.9261 77.4864 92.1361 77.3951 92.4284" fill="#00B0C7"/>
<path d="M99.7258 87.1129C99.6345 86.9028 99.3422 87.1585 99.2692 86.8845L98.8582 87.2955C98.1001 87.4782 97.3421 87.7978 96.7393 88.2636C96.2826 88.0718 96.6479 88.629 96.2826 88.6929C96.0999 88.8299 95.7985 88.629 95.8625 88.5102C95.7072 88.5376 95.7894 88.8756 95.5428 88.7842C95.1501 88.7112 95.0588 89.0217 95.1227 89.2957C94.5747 89.6428 93.1225 89.7798 93.1225 90.0355C93.1682 90.0081 93.1956 90.0629 93.2138 90.0812C93.0494 90.0812 92.8028 90.4465 92.7572 90.1268L92.4284 90.41C92.4284 90.41 92.3188 90.4556 92.1544 90.4556C92.1087 90.483 92.1087 90.547 92.1087 90.5926C92.0448 90.8027 91.7891 90.9123 91.6064 90.8666V90.821L91.2411 90.7753C91.031 90.9762 90.5287 90.8484 90.5926 91.2776C90.5013 91.3689 90.3369 91.2502 90.2729 91.3689C90.2729 91.4146 90.2547 91.4785 90.3186 91.5059C90.209 91.6429 90.1633 91.8073 89.9441 91.7891C89.6975 91.2319 89.3231 92.0631 89.0217 91.6064C88.7751 91.9991 88.2819 91.9078 88.0536 92.2549C87.5238 92.2549 87.1311 92.8303 86.5192 92.6202C86.3548 92.8759 86.1721 92.7115 85.9164 92.7572C85.825 93.1225 85.5511 92.8759 85.3227 93.0769C84.93 92.9125 84.6743 93.0769 84.2633 93.0769C83.9436 93.5153 84.0623 92.8851 83.697 93.1408C83.4687 93.0951 83.423 93.0495 83.1855 93.0038C83.1399 93.2961 82.601 93.0586 82.6467 93.1682C82.4366 93.3326 82.2266 93.4696 81.9617 93.3965C81.8704 93.3509 81.642 93.6705 81.5964 93.5792L81.3589 93.6249C81.0392 93.5792 80.9662 93.7344 80.6648 93.6705C80.4182 93.7162 80.3908 93.9445 80.3451 94.1363C80.1168 94.0632 79.7971 94.319 79.5688 94.0815V94.1728C79.45 94.2185 79.377 94.3098 79.24 94.2642C78.7103 93.8714 78.9386 94.7482 78.4545 94.7665C78.6463 95.3602 77.8152 95.2232 77.9248 95.7346C77.7878 95.826 77.8791 96.1456 77.6051 96.0634C77.5138 96.2918 77.7604 96.4744 77.7969 96.7028C77.8609 96.8854 77.6599 96.8672 77.5595 96.8672C77.5595 97.2325 77.3585 97.4151 77.4225 97.7896C77.6051 97.7622 77.4681 97.9723 77.5595 98.0179L77.7969 97.9723C78.0983 98.3011 77.4225 98.2737 77.5595 98.6573L77.8791 98.7029C77.9065 98.8582 77.8152 99.0957 78.0618 99.0683C78.1531 99.324 78.4271 99.6619 78.7285 99.7989C78.8199 99.7807 78.9386 99.6163 79.0117 99.7989L78.9569 99.8446L79.0573 99.9359L79.1487 99.8446C79.3496 99.9816 79.2583 100.374 79.6053 100.356C79.8336 100.42 79.9706 100.027 80.2446 100.173C80.546 100.128 80.6374 99.9816 80.8018 99.7167C80.9388 99.735 80.9844 99.9177 81.0301 99.9907C81.1854 99.8811 81.3954 100.036 81.5781 99.8537C81.9252 100.128 82.3636 99.5523 82.7745 99.4884C82.665 99.4245 82.6375 99.3057 82.5919 99.2144L82.8202 99.0774C82.875 98.9587 82.7745 98.8673 82.6923 98.8491L82.8933 98.9404C82.9937 98.9678 83.2129 98.9221 83.3134 98.8947C83.3134 98.4837 83.5235 98.6938 83.8157 98.3924C83.8888 98.4563 83.9527 98.5294 84.0532 98.5751C84.3911 98.1823 84.7108 97.8627 84.9665 97.4699C85.1492 97.3329 85.1035 97.3877 85.3319 97.2416C85.5602 97.4243 85.6972 97.1503 85.8798 97.1046C86.1356 96.9128 85.9255 96.8032 86.0625 96.5932C86.1082 96.5932 86.1356 96.6114 86.1538 96.6388C86.2908 96.5018 86.3639 96.3192 86.3822 96.1365C87.0489 96.5018 86.5922 95.689 87.259 95.689C87.0489 95.4789 87.4325 95.625 87.4873 95.4424C87.8435 95.3784 88.1449 94.7391 88.4828 94.4742C88.9395 94.593 89.25 93.908 89.5971 93.6797C89.6701 93.8167 89.7341 93.6522 89.8254 93.634C89.935 93.1317 90.4921 93.3874 90.6565 92.8851C90.8209 92.7937 91.2685 92.401 91.4146 92.5197C91.7617 92.4467 91.99 92.3188 92.2 92.0631C92.611 92.0174 92.6384 91.4877 92.9855 91.4603C93.0951 91.5059 93.5609 91.3233 93.6979 91.1863C93.8349 91.3233 93.9993 91.1223 94.0632 91.0493C94.1089 91.0949 94.1728 91.1223 94.1546 91.1863H94.2459C94.3646 90.9762 94.6112 90.9762 94.7939 90.9123C94.867 90.7753 94.9309 90.5013 95.1866 90.547L95.2323 89.8985C95.3328 89.8985 95.4423 89.8528 95.5063 89.9442C95.7529 89.8346 96.1273 89.8346 96.1913 89.4784C96.4196 89.3414 96.6023 89.177 96.9311 89.25C96.8854 88.9121 97.3238 89.0217 97.3421 88.702C97.8261 88.7751 98.0545 88.428 98.3559 88.1266C98.9952 88.3824 98.8582 87.533 99.4153 87.6243C99.5249 87.5056 99.7806 87.3047 99.6893 87.122" fill="#00B0C7"/>
<path d="M90.9581 92.1087C90.8482 92.1818 90.9581 92.3188 91.0039 92.337L91.0954 92.2457C91.1229 92.127 90.9764 92.1726 90.9581 92.1087Z" fill="#00B0C7"/>
<path d="M36.1402 79.4775C36.058 78.829 35.3273 79.0482 35.0899 78.4545H34.825C33.9665 77.9431 32.9983 78.2901 32.1307 78.5641C31.8293 79.0025 31.4 78.6189 31.053 78.9477C30.7059 79.1121 30.3223 79.377 30.03 79.5962C29.9204 80.1351 29.2994 79.9707 29.0528 80.3999C28.5413 80.8292 28.7788 81.4502 28.2491 81.9069C28.4683 82.0713 28.5961 82.391 28.4043 82.6376C27.8929 82.9664 28.6692 83.149 28.4591 83.56C28.5413 84.0715 28.861 84.4733 29.2172 84.9026C29.2446 85.3136 29.8382 85.2862 29.9204 85.7063C30.5415 85.8159 30.5872 86.5648 31.263 86.5101C31.4548 86.7018 31.6649 86.3182 31.8019 86.6196L31.6923 86.7292C31.7745 87.0489 31.9024 87.3777 32.2312 87.5421C32.9344 87.6517 33.4185 87.3777 34.0669 87.2133C34.0395 86.7018 34.6606 86.9667 34.7702 86.5648C35.3091 86.2361 36.0032 85.7337 36.3594 85.1675C36.4416 84.7108 36.8708 84.2724 36.7886 83.8705C37.1083 83.6331 36.7612 83.0942 37.1083 82.8476C37.1357 82.0987 37.0809 81.368 36.953 80.6648C36.7338 80.2629 36.5238 79.6419 36.1402 79.4775ZM35.5557 84.2541C34.9894 84.9574 34.9529 85.8433 34.0213 86.3C33.9391 85.9255 34.4231 85.7885 34.2313 85.3867C33.7199 84.656 32.907 84.793 32.3499 84.2541C32.0759 84.0623 31.7288 83.8249 31.327 83.7701C31.3544 83.0668 30.441 82.9846 30.578 82.2905C30.9525 82.1261 30.304 81.9434 30.6876 81.7516C30.4684 81.3772 30.8246 81.021 31.0164 80.7835C31.7928 80.3542 32.5782 79.5962 33.4915 80.0803L33.7655 79.9706C34.3592 80.0802 34.7611 80.5643 35.1081 80.9936C35.2999 81.3406 35.6744 81.6968 35.4552 82.1261C35.5922 82.4184 35.5922 82.7472 35.6744 83.0668C35.4826 83.4687 35.6927 83.8249 35.5648 84.2541" fill="#00B0C7"/>
<path d="M32.834 95.5428C32.3773 95.2688 32.3773 94.8122 32.4047 94.3555C32.1581 94.1911 31.6193 94.0815 31.8659 93.6522C31.6741 93.5152 31.4366 93.2778 31.2174 93.3782C31.464 92.8668 31.053 92.5106 30.9434 92.0631C30.9708 91.9261 30.9708 91.6612 30.7334 91.5242C30.706 91.031 30.0849 90.7205 30.0849 90.2273C30.0027 90.1451 29.82 90.0081 29.9753 89.9076C29.5186 89.6428 29.7835 89.0217 29.3268 88.7751C29.5186 88.291 28.9798 88.0992 28.9524 87.6974C29.1716 87.396 28.5505 87.0489 28.6236 86.784C28.5231 86.5648 28.0116 86.3731 28.1943 86.0808L27.9203 85.752C28.0025 85.4506 27.3541 85.2953 27.6007 84.8387C27.4637 84.5921 27.4637 84.382 27.1623 84.245C27.007 84.0806 26.9248 83.8431 26.8974 83.7061C26.8152 83.6513 26.7604 83.5417 26.6873 83.5417C26.6873 82.9755 26.4407 82.7289 26.4133 82.2722C26.1941 82.1352 25.8745 82.0804 25.7649 81.779C25.2534 81.5142 24.4954 81.569 23.9565 81.9434C23.8195 82.2357 23.7464 82.5371 23.4724 82.7837C23.6277 83.1856 22.9336 83.5417 23.4724 83.8614C23.6916 84.4551 23.4724 85.5328 24.0661 86.0717C23.8834 86.5557 24.7694 86.6927 24.3858 87.259C25.0342 87.3138 24.678 88.017 25.2991 88.1175C25.1073 88.6838 25.8653 88.5468 25.9201 88.9212C25.5457 89.4053 26.3037 89.2226 26.3037 89.5697C26.8426 89.7067 26.8426 90.1907 27.1623 90.5378C27.6189 90.9762 27.7285 91.5881 28.1395 91.99C28.8336 92.5563 29.3816 93.2321 29.6465 94.0632C29.9479 93.9536 30.2128 94.255 30.4594 94.0084C30.6238 94.1454 30.779 94.3829 30.779 94.5473C30.8338 94.5473 31.0439 94.5199 31.1535 94.593L30.9891 94.8122C30.9891 94.8122 31.0622 94.867 31.0439 94.9218H31.1535C31.2631 94.867 31.2631 94.7574 31.3179 94.7026C31.5645 94.6752 31.8293 94.6478 31.8019 94.9218C32.2586 94.9766 32.0211 95.351 32.0211 95.6159C32.4321 95.5885 32.56 96.2095 32.7244 96.5383C32.8888 96.6936 33.2359 96.721 33.3729 96.584C33.2359 96.5018 33.2633 96.3191 33.108 96.2004C33.0258 95.963 32.8614 95.689 32.834 95.5063" fill="#00B0C7"/>
<path d="M19.3808 88.9943L19.4356 88.9395C19.6548 88.6746 19.2712 88.6107 19.1616 88.4006C19.2438 88.2088 19.6456 87.9713 19.4356 87.6426C18.7049 87.4508 18.8145 86.5374 18.3578 86.1904C18.4948 85.9712 18.0656 85.7794 18.303 85.5419L17.7094 85.4871C17.8464 85.1948 17.3897 85.0578 17.2253 84.8934C17.2801 84.729 17.4445 84.656 17.3897 84.4642C17.0153 84.245 16.6043 84.6834 16.312 84.2998C15.9558 84.4916 15.5631 84.5464 15.2617 84.8934C15.1795 84.8112 15.1521 84.729 15.1521 84.6195C14.9603 84.5464 14.7502 84.5464 14.6132 84.4642C14.2387 84.656 13.9921 84.245 13.6451 84.245C13.5081 84.1354 13.298 84.1902 13.3254 84.4094C13.0514 84.5738 12.814 84.5099 12.5126 84.4642C12.403 84.7017 12.0833 84.793 12.0285 85.0578L12.1381 85.1674C11.8641 85.8981 11.2522 85.3044 10.6859 85.5967C10.8229 85.9164 10.2841 86.1082 10.6311 86.4096C10.2293 86.5648 10.3297 86.8388 10.3023 87.2133C10.1927 87.5147 9.87306 87.7521 9.59906 87.6426L9.54426 88.1814C9.3342 88.2088 9.1972 88.3184 9.115 88.5011L9.2794 88.5559C9.46206 88.7751 9.2794 88.9303 9.115 89.0947C9.0876 89.6336 8.25647 90.1451 8.79534 90.7661C8.76794 91.168 8.25647 90.8483 8.09208 91.1406C8.14688 91.2502 8.31127 91.4328 8.09208 91.515C8.06468 91.7068 8.31127 91.6246 8.31127 91.7799C8.09208 92.2366 7.23355 92.2914 7.71761 92.885C7.20615 93.2321 7.06915 93.6979 6.84996 94.2367C6.74036 94.2093 6.61249 94.2642 6.53029 94.182C6.28369 94.3737 6.53029 94.6386 6.53029 94.8852C6.47549 95.1318 6.2837 95.3693 6.2015 95.5885C6.36589 96.0177 5.90923 96.31 6.31109 96.6114C5.66264 96.5292 6.1467 97.3146 5.79963 97.5247C5.44344 97.8992 5.06897 98.2828 4.55751 98.4928C4.53011 98.7303 4.42051 99.0317 4.23785 99.0865C4.05519 99.735 3.39759 100.109 3.47979 100.922C3.47979 101.379 3.90905 101.352 3.96385 101.781C4.25612 101.699 4.65798 101.808 4.87718 101.516C4.90458 101.059 5.44344 101.352 5.63524 101.087C5.74483 100.977 5.69003 100.758 5.58044 100.657L6.41156 99.7441C6.89562 99.7715 7.21529 99.2874 7.65368 99.2509C7.70848 98.7942 8.21994 98.986 8.51221 98.8216C8.9232 98.7942 9.32506 98.0727 9.91872 98.3376C10.1653 98.228 10.1105 97.8535 10.4576 97.9631C10.8594 97.3969 12.0194 98.0453 11.8002 96.9859C11.8824 96.7119 12.3116 96.9037 12.2294 96.6114C12.7135 96.5292 12.7135 95.9903 13.2524 96.1273C13.7364 96.0725 13.4716 95.2871 14.0104 95.4241C14.1383 95.2323 14.6315 95.3693 14.4945 95.0405C14.6041 94.1819 15.5174 94.6386 16.1385 94.4468C16.5951 94.255 15.8919 93.9354 16.2937 93.6888C16.4033 94.0632 16.6956 93.8166 16.997 93.8988V93.57C17.0518 93.57 17.134 93.5426 17.1614 93.6248C17.408 93.5152 17.2984 93.1134 17.6454 93.1956C17.618 92.8942 18.2391 93.0038 17.9651 92.6567C18.9058 92.2822 17.9377 91.579 18.3944 91.0127C19.1524 91.0401 18.714 90.1268 19.3625 89.935L19.4173 89.9898C19.737 89.8528 19.6822 89.3687 19.6365 89.0765C19.4995 89.1313 19.4447 89.0217 19.3716 88.9669" fill="#00B0C7"/>
<defs>
<linearGradient id="paint0_linear_56_588" x1="41.6961" y1="46.1632" x2="58.3819" y2="-0.696136" gradientUnits="userSpaceOnUse">
<stop stop-color="white"/>
<stop offset="1" stop-color="#EF8BB6"/>
</linearGradient>
<linearGradient id="paint1_linear_56_588" x1="48.9766" y1="53.3395" x2="4.08706" y2="59.5764" gradientUnits="userSpaceOnUse">
<stop stop-color="white"/>
<stop offset="1" stop-color="#EF8BB6"/>
</linearGradient>
<linearGradient id="paint2_linear_56_588" x1="44.2622" y1="39.1506" x2="15.7049" y2="6.71308" gradientUnits="userSpaceOnUse">
<stop stop-color="white"/>
<stop offset="1" stop-color="#EF8BB6"/>
</linearGradient>
<linearGradient id="paint3_linear_56_588" x1="32.6906" y1="52.1063" x2="0.851181" y2="38.611" gradientUnits="userSpaceOnUse">
<stop stop-color="white"/>
<stop offset="1" stop-color="#EF8BB6"/>
</linearGradient>
<linearGradient id="paint4_linear_56_588" x1="33.5361" y1="41.1582" x2="28.3777" y2="21.676" gradientUnits="userSpaceOnUse">
<stop stop-color="white"/>
<stop offset="1" stop-color="#F9C479"/>
</linearGradient>
<linearGradient id="paint5_linear_56_588" x1="37.5661" y1="47.0968" x2="16.4169" y2="39.5783" gradientUnits="userSpaceOnUse">
<stop stop-color="white"/>
<stop offset="1" stop-color="#F9C479"/>
</linearGradient>
<linearGradient id="paint6_linear_56_588" x1="47.0935" y1="55.1683" x2="27.299" y2="58.7477" gradientUnits="userSpaceOnUse">
<stop stop-color="white"/>
<stop offset="1" stop-color="#F9C479"/>
</linearGradient>
<linearGradient id="paint7_linear_56_588" x1="55.3159" y1="62.3436" x2="39.4018" y2="26.2274" gradientUnits="userSpaceOnUse">
<stop stop-color="white"/>
<stop offset="1" stop-color="#F9C479"/>
</linearGradient>
<linearGradient id="paint8_linear_56_588" x1="9.23353" y1="71.5594" x2="62.4484" y2="60.5197" gradientUnits="userSpaceOnUse">
<stop stop-color="#FFFBCD"/>
<stop offset="1" stop-color="#99D6F6"/>
</linearGradient>
<linearGradient id="paint9_linear_56_588" x1="49.3401" y1="-0.0728565" x2="78.2996" y2="62.315" gradientUnits="userSpaceOnUse">
<stop stop-color="#FFFBCD"/>
<stop offset="1" stop-color="#99D6F6"/>
</linearGradient>
</defs>
</svg>
