<svg width="6" height="6" viewBox="0 0 6 6" fill="none" xmlns="http://www.w3.org/2000/svg">
<path d="M1.30366 2.51821C2.78357 1.81718 0.184476 1.14383 1.34991 0.212194C2.12686 -0.40582 2.74657 0.442795 2.97781 1.26374C3.20905 2.07546 3.40328 2.25994 3.63452 1.32831C3.86576 0.396674 4.023 0.212189 4.83695 0.452015C5.6509 0.682617 5.6509 1.72494 4.94794 2.07546C4.24498 2.41675 3.82876 2.88717 4.64271 3.11777C5.45666 3.34838 5.42892 2.97019 5.7619 3.45907C6.38161 4.36303 4.76295 5.49759 4.40223 4.85191C3.9675 4.04941 3.44953 3.85571 3.44953 4.78734C3.44953 5.16553 3.29229 6.12483 2.60783 5.98647C1.76613 5.80198 1.12792 5.00872 1.83088 4.4276C2.25636 4.07709 2.21936 3.31149 1.65514 3.86493C1.21117 4.30769 0.0642357 4.54751 0.00873906 3.4314C-0.0745059 1.83563 0.44346 2.91485 1.28516 2.51821" fill="#00B0C7"/>
</svg>
