<svg width="1225" height="360" viewBox="0 0 1225 360" fill="none" xmlns="http://www.w3.org/2000/svg">
<rect x="100" y="60" width="15" height="20" fill="white"/>
<rect x="130" y="60" width="15" height="20" fill="white"/>
<rect x="115" y="80" width="15" height="20" fill="white"/>
<rect x="100" y="100" width="15" height="20" fill="white"/>
<rect x="130" y="100" width="15" height="20" fill="white"/>
<rect x="115" y="240" width="15" height="20" fill="white"/>
<rect x="130" y="260" width="15" height="20" fill="white"/>
<rect x="100" y="260" width="15" height="20" fill="white"/>
<rect x="115" y="280" width="15" height="20" fill="white"/>
<rect width="15" height="20" transform="matrix(1 0 0 -1 345 300)" fill="white"/>
<rect width="15" height="20" transform="matrix(1 0 0 -1 375 300)" fill="white"/>
<rect width="15" height="20" transform="matrix(1 0 0 -1 360 280)" fill="white"/>
<rect width="15" height="20" transform="matrix(1 0 0 -1 345 260)" fill="white"/>
<rect width="15" height="20" transform="matrix(1 0 0 -1 375 260)" fill="white"/>
<rect width="15" height="20" transform="matrix(1 0 0 -1 360 120)" fill="white"/>
<rect width="15" height="20" transform="matrix(1 0 0 -1 375 100)" fill="white"/>
<rect width="15" height="20" transform="matrix(1 0 0 -1 345 100)" fill="white"/>
<rect width="15" height="20" transform="matrix(1 0 0 -1 360 80)" fill="white"/>
<rect x="590" y="60" width="15" height="20" fill="white"/>
<rect x="620" y="60" width="15" height="20" fill="white"/>
<rect x="605" y="80" width="15" height="20" fill="white"/>
<rect x="590" y="100" width="15" height="20" fill="white"/>
<rect x="620" y="100" width="15" height="20" fill="white"/>
<rect x="605" y="240" width="15" height="20" fill="white"/>
<rect x="620" y="260" width="15" height="20" fill="white"/>
<rect x="590" y="260" width="15" height="20" fill="white"/>
<rect x="605" y="280" width="15" height="20" fill="white"/>
<rect width="15" height="20" transform="matrix(1 0 0 -1 835 300)" fill="white"/>
<rect width="15" height="20" transform="matrix(1 0 0 -1 865 300)" fill="white"/>
<rect width="15" height="20" transform="matrix(1 0 0 -1 850 280)" fill="white"/>
<rect width="15" height="20" transform="matrix(1 0 0 -1 835 260)" fill="white"/>
<rect width="15" height="20" transform="matrix(1 0 0 -1 865 260)" fill="white"/>
<rect width="15" height="20" transform="matrix(1 0 0 -1 850 120)" fill="white"/>
<rect width="15" height="20" transform="matrix(1 0 0 -1 865 100)" fill="white"/>
<rect width="15" height="20" transform="matrix(1 0 0 -1 835 100)" fill="white"/>
<rect width="15" height="20" transform="matrix(1 0 0 -1 850 80)" fill="white"/>
<rect x="1080" y="60" width="15" height="20" fill="white"/>
<rect x="1110" y="60" width="15" height="20" fill="white"/>
<rect x="1095" y="80" width="15" height="20" fill="white"/>
<rect x="1080" y="100" width="15" height="20" fill="white"/>
<rect x="1110" y="100" width="15" height="20" fill="white"/>
<rect x="1095" y="240" width="15" height="20" fill="white"/>
<rect x="1110" y="260" width="15" height="20" fill="white"/>
<rect x="1080" y="260" width="15" height="20" fill="white"/>
<rect x="1095" y="280" width="15" height="20" fill="white"/>
</svg>
