<svg width="295" height="360" viewBox="0 0 295 360" fill="none" xmlns="http://www.w3.org/2000/svg">
<rect y="60" width="15" height="20" fill="#737373" fill-opacity="0.1"/>
<rect x="30" y="60" width="15" height="20" fill="#737373" fill-opacity="0.1"/>
<rect x="15" y="80" width="15" height="20" fill="#737373" fill-opacity="0.1"/>
<rect y="100" width="15" height="20" fill="#737373" fill-opacity="0.1"/>
<rect x="30" y="100" width="15" height="20" fill="#737373" fill-opacity="0.1"/>
<rect x="15" y="240" width="15" height="20" fill="#737373" fill-opacity="0.1"/>
<rect x="30" y="260" width="15" height="20" fill="#737373" fill-opacity="0.1"/>
<rect y="260" width="15" height="20" fill="#737373" fill-opacity="0.1"/>
<rect x="15" y="280" width="15" height="20" fill="#737373" fill-opacity="0.1"/>
<rect width="15" height="20" transform="matrix(1 0 0 -1 125 300)" fill="#737373" fill-opacity="0.1"/>
<rect width="15" height="20" transform="matrix(1 0 0 -1 155 300)" fill="#737373" fill-opacity="0.1"/>
<rect width="15" height="20" transform="matrix(1 0 0 -1 140 280)" fill="#737373" fill-opacity="0.1"/>
<rect width="15" height="20" transform="matrix(1 0 0 -1 125 260)" fill="#737373" fill-opacity="0.1"/>
<rect width="15" height="20" transform="matrix(1 0 0 -1 155 260)" fill="#737373" fill-opacity="0.1"/>
<rect width="15" height="20" transform="matrix(1 0 0 -1 140 120)" fill="#737373" fill-opacity="0.1"/>
<rect width="15" height="20" transform="matrix(1 0 0 -1 155 100)" fill="#737373" fill-opacity="0.1"/>
<rect width="15" height="20" transform="matrix(1 0 0 -1 125 100)" fill="#737373" fill-opacity="0.1"/>
<rect width="15" height="20" transform="matrix(1 0 0 -1 140 80)" fill="#737373" fill-opacity="0.1"/>
<rect x="250" y="60" width="15" height="20" fill="#737373" fill-opacity="0.1"/>
<rect x="280" y="60" width="15" height="20" fill="#737373" fill-opacity="0.1"/>
<rect x="265" y="80" width="15" height="20" fill="#737373" fill-opacity="0.1"/>
<rect x="250" y="100" width="15" height="20" fill="#737373" fill-opacity="0.1"/>
<rect x="280" y="100" width="15" height="20" fill="#737373" fill-opacity="0.1"/>
<rect x="265" y="240" width="15" height="20" fill="#737373" fill-opacity="0.1"/>
<rect x="280" y="260" width="15" height="20" fill="#737373" fill-opacity="0.1"/>
<rect x="250" y="260" width="15" height="20" fill="#737373" fill-opacity="0.1"/>
<rect x="265" y="280" width="15" height="20" fill="#737373" fill-opacity="0.1"/>
</svg>
