<svg width="94" height="96" viewBox="0 0 94 96" fill="none" xmlns="http://www.w3.org/2000/svg">
<path d="M86.2348 34.9943C80.8973 38.1404 81.3364 30.894 79.6146 28.384C74.7765 21.3352 68.6211 20.4241 61.1745 19.3324C64.6094 9.30086 62.3108 4.10888 59.4957 0C59.2977 0.0515759 59.0911 0.103152 58.8931 0.163324C54.3563 1.45272 46.4103 5.05444 40.3583 11.2693C40.057 10.9599 39.747 10.6504 39.4285 10.341C33.9705 5.01146 21.0745 5.38968 20.5751 0.636103C20.5149 0.876791 20.446 1.11748 20.3771 1.35817C17.9839 9.95415 13.4126 21.8682 15.8747 30.5673C15.4873 30.7736 15.1085 30.9885 14.7383 31.2464C10.0724 34.4871 2.55683 35.149 0.52514 35.2607C0.189395 35.2865 0 35.2951 0 35.2951C0 35.2951 3.03032 49.7106 15.7542 55.616C12.0266 58.1862 7.43804 60.3266 3.20249 58.8223C2.90979 58.7192 2.61709 58.5989 2.32439 58.4613C6.56855 63.2407 23.5452 71.3295 34.5043 66.1891C42.3814 62.4842 49.0532 57.9885 57.2488 57.9456C67.6569 62.3553 76.4552 62.7163 83.1959 62.2006C88.1976 61.8138 88.0513 57.6017 87.3195 56.0974C86.6997 54.851 85.4945 53.8453 87.6295 52.2292C88.5334 51.5501 87.8963 49.1519 86.6739 49.3668C82.8602 50.0287 81.6894 48.2235 81.6894 48.2235C85.6925 48.6963 87.9308 47.1662 87.7672 46.1948C87.6209 45.2321 86.7083 45.4642 85.9077 44.3553C85.0985 43.2378 87.6553 41.2693 88.146 39.8854C89.334 36.5415 86.2262 34.9943 86.2262 34.9943M17.8892 54.043C17.8892 54.043 17.8203 54.0946 17.7859 54.1289C13.1888 52.8395 7.61883 49.9599 2.02308 38.8367C3.88259 42.2579 9.51278 50.0201 22.538 50.5788C20.7215 51.8424 19.1547 53.0544 17.8892 54.043ZM31.9733 41.1834C27.3675 39.3266 24.0789 37.1862 21.7718 34.9169C20.0586 33.2321 18.8792 31.4699 18.0958 29.6905C15.2291 23.1834 17.6654 16.4527 18.4315 12.361C17.8031 17.6476 18.7329 23.6476 21.9009 29.2178C23.0631 31.255 24.518 33.2407 26.3172 35.106C28.4264 37.3066 31.0005 39.3438 34.091 41.1318C34.091 41.1318 34.3923 41.9226 34.4698 42.1117C33.6003 41.8109 32.7653 41.4928 31.9733 41.1748M60.744 33.2063C60.2189 32.7335 62.2506 25.384 68.8105 24.9885C71.3846 24.8338 73.4593 26.6476 73.5109 27.1805C72.3315 26.596 64.0154 23.5874 60.744 33.2063ZM72.5554 38.2693C72.5209 37.8653 72.8136 37.5387 73.201 37.5387C73.5884 37.5387 73.9328 37.8653 73.9672 38.2693C74.0017 38.6734 73.709 39.0086 73.3216 39.0086C72.9342 39.0086 72.5984 38.6734 72.564 38.2693M76.0333 38.9054C75.6459 38.9054 75.3016 38.5788 75.2758 38.1748C75.2413 37.7708 75.5254 37.4441 75.9128 37.4441C76.3002 37.4441 76.6446 37.7708 76.6704 38.1748C76.7048 38.5788 76.4121 38.9054 76.0247 38.9054M76.1797 36.6533C74.4493 37.2378 71.6514 37.341 69.043 35.2951C67.3556 33.9713 68.8622 34.1261 68.8622 34.1261C71.2985 36.5673 78.2114 36.2751 76.9028 31.5903C76.9028 31.5903 77.6862 31.9771 77.9531 32.957C78.22 33.937 77.9187 36.0774 76.1883 36.6619M78.2975 37.9255C77.9015 37.9255 77.5657 37.5989 77.5313 37.1948C77.4968 36.7908 77.7809 36.4642 78.1769 36.4642C78.573 36.4642 78.9087 36.7908 78.9431 37.1948C78.969 37.5989 78.6849 37.9255 78.2975 37.9255ZM79.2358 35.6819C78.8484 35.6819 78.5041 35.3553 78.4783 34.9513C78.4438 34.5473 78.7365 34.2206 79.1239 34.2206C79.5113 34.2206 79.8471 34.5473 79.8901 34.9513C79.9245 35.3553 79.6318 35.6819 79.2444 35.6819" fill="#F093A0"/>
<path d="M57.6794 56.2777C57.6106 56.2519 57.5331 56.2262 57.4642 56.209C57.1285 56.1058 56.7927 56.0113 56.4656 55.9253C56.3795 55.8995 56.2934 55.8823 56.1987 55.8565C55.8802 55.7792 55.5617 55.7018 55.2431 55.6416C55.1571 55.6244 55.0796 55.6072 54.9935 55.5986C54.761 55.5557 54.52 55.5127 54.279 55.4783C54.1498 55.4525 54.0121 55.4353 53.8829 55.4181C53.6075 55.3837 53.3406 55.3494 53.0651 55.315C52.9015 55.2978 52.738 55.2892 52.5744 55.272C52.428 55.2634 52.2903 55.2462 52.144 55.2376C51.5413 55.2032 50.9387 55.186 50.3361 55.186C50.1553 55.186 49.9745 55.186 49.8023 55.186C49.6732 55.186 49.5441 55.186 49.415 55.1946C49.0964 55.2118 48.7779 55.229 48.468 55.2462C47.2627 55.3408 46.0833 55.5041 44.9211 55.7276C43.1649 56.0628 41.4604 56.527 39.8075 57.06C34.5216 58.762 29.8126 61.1431 26.1797 62.1746C19.0171 64.2204 12.4572 63.1889 9.87451 62.1488C26.2313 69.6273 34.8057 64.0743 40.677 60.9368C40.9611 60.782 41.2538 60.6359 41.5379 60.4898C41.6498 60.4296 41.7703 60.378 41.8822 60.3178C42.0544 60.2319 42.2266 60.1459 42.3987 60.0686C42.5451 59.9998 42.7 59.931 42.8464 59.8623C42.9841 59.8021 43.1305 59.7333 43.2682 59.6731C43.4404 59.5958 43.6126 59.527 43.7848 59.4496C43.9053 59.3981 44.0172 59.3465 44.1377 59.3035C44.3271 59.2261 44.5251 59.1488 44.7231 59.0714C44.8178 59.037 44.9211 58.9941 45.0158 58.9597C45.2224 58.8823 45.4377 58.8049 45.6443 58.7276C45.7304 58.6932 45.8078 58.6674 45.8939 58.633C46.1178 58.5557 46.3416 58.4783 46.5654 58.4009C46.6343 58.3752 46.7032 58.358 46.772 58.3322C47.0131 58.2548 47.2455 58.1774 47.4866 58.1087C47.5382 58.0915 47.5985 58.0743 47.6501 58.0571C47.8998 57.9797 48.1495 57.911 48.4077 57.8422C48.4508 57.8336 48.4938 57.8164 48.5282 57.8078C48.7951 57.739 49.0534 57.6703 49.3203 57.6101C49.3547 57.6101 49.3805 57.5929 49.415 57.5843C49.6818 57.5155 49.9573 57.4554 50.2328 57.4038C50.25 57.4038 50.2758 57.3952 50.2931 57.3866C50.5771 57.3264 50.8612 57.2749 51.1367 57.2147C51.1453 57.2147 51.1625 57.2147 51.1712 57.2147C51.4552 57.1631 51.7479 57.1115 52.0406 57.0686C52.0406 57.0686 52.0493 57.0686 52.0579 57.0686C52.3506 57.0256 52.6433 56.9826 52.936 56.9396C53.53 56.8623 54.1154 56.8107 54.7094 56.7677C54.8644 56.7591 55.0193 56.7419 55.1743 56.7333C56.2418 56.6731 57.3007 56.6817 58.3509 56.7333C58.4198 56.7333 58.4801 56.7419 58.5489 56.7505C58.7556 56.7677 58.9622 56.7763 59.1688 56.7935C58.6695 56.5958 58.1702 56.4153 57.6708 56.2605" fill="#F093A0"/>
<mask id="mask0_785_9206" style="mask-type:luminance" maskUnits="userSpaceOnUse" x="35" y="0" width="24" height="42">
<path d="M37.1469 19.6936C37.1039 19.8312 37.0522 19.9687 37.0092 20.1062C36.9833 20.175 36.9661 20.2438 36.9403 20.3125C36.8972 20.4587 36.8542 20.6048 36.8112 20.7509C36.7939 20.8111 36.7767 20.8799 36.7595 20.94C36.7165 21.1034 36.6648 21.2581 36.6304 21.4214C36.6132 21.473 36.6045 21.5246 36.5873 21.5761C36.5443 21.7653 36.4926 21.9458 36.4496 22.1349C36.4496 22.1607 36.4324 22.195 36.4324 22.2208C36.1655 23.3813 35.9761 24.5847 35.8642 25.8226C35.6317 28.3498 35.7264 31.0145 36.1913 33.6707C36.3721 34.728 36.6132 35.7767 36.9145 36.8168C36.9145 36.8168 36.9059 36.8168 36.8972 36.8168C37.3449 38.3727 37.9475 39.9114 38.6793 41.3985C38.6018 41.2524 38.5329 41.0976 38.4641 40.9515C35.7351 32.6048 39.764 26.3469 41.3566 24.9544C42.4758 23.9744 43.3108 24.4902 43.8274 25.6248C43.9479 25.2638 44.077 24.9028 44.2234 24.5503C44.9293 22.7538 45.8332 21.0948 46.9007 19.6248V19.6163C46.9266 19.5819 46.9524 19.5475 46.9782 19.5131C47.0901 19.3584 47.2106 19.2036 47.3226 19.0489C47.3742 18.9887 47.4173 18.92 47.4689 18.8598C47.5894 18.7137 47.7014 18.5675 47.8219 18.43C47.8907 18.344 47.9682 18.2581 48.0457 18.1721C48.1576 18.0518 48.2609 17.9228 48.3728 17.8025C48.4503 17.7165 48.5278 17.6392 48.6053 17.5532C48.6914 17.4673 48.7689 17.3813 48.8549 17.2953C48.9324 17.218 49.0185 17.132 49.1046 17.0546C49.1649 16.9945 49.2337 16.9343 49.294 16.8741C49.3284 16.8397 49.3629 16.8054 49.3973 16.771C49.5092 16.6678 49.6211 16.5647 49.733 16.4701C49.845 16.367 49.9655 16.2724 50.0774 16.1693C50.1549 16.1091 50.2237 16.0489 50.3012 15.9887C50.4131 15.9028 50.5251 15.8082 50.637 15.7223C50.7058 15.6707 50.7747 15.6191 50.8436 15.5675C51.0244 15.4386 51.2052 15.3011 51.3859 15.1807C55.7937 12.1721 59.4094 8.8025 58.8842 0.335449C54.201 3.04319 46.5564 6.34405 41.3911 12.3698C41.1758 12.6191 40.9778 12.8684 40.7712 13.1263C39.9878 14.1148 39.2733 15.1635 38.6448 16.2982C38.3952 16.7538 38.1541 17.218 37.9303 17.6993C37.8442 17.8885 37.7581 18.0776 37.6807 18.2753C37.6548 18.3355 37.629 18.3956 37.6032 18.4558C37.5429 18.5933 37.4913 18.7309 37.4396 18.8684C37.4138 18.9372 37.388 19.0059 37.3621 19.0833C37.3105 19.2122 37.2588 19.3498 37.2158 19.4787C37.19 19.5475 37.1641 19.6248 37.1383 19.6936" fill="white"/>
</mask>
<g mask="url(#mask0_785_9206)">
<mask id="mask1_785_9206" style="mask-type:luminance" maskUnits="userSpaceOnUse" x="22" y="-7" width="51" height="57">
<path d="M38.1919 -6.89396L22.5166 37.0615L56.6193 49.1868L72.2945 5.23132L38.1919 -6.89396Z" fill="white"/>
</mask>
<g mask="url(#mask1_785_9206)">
<mask id="mask2_785_9206" style="mask-type:luminance" maskUnits="userSpaceOnUse" x="22" y="-7" width="51" height="57">
<path d="M38.1919 -6.89396L22.5166 37.0615L56.6193 49.1868L72.2945 5.23132L38.1919 -6.89396Z" fill="white"/>
</mask>
<g mask="url(#mask2_785_9206)">
<mask id="mask3_785_9206" style="mask-type:luminance" maskUnits="userSpaceOnUse" x="22" y="-7" width="51" height="57">
<path d="M38.1919 -6.89396L22.5166 37.0615L56.6193 49.1868L72.2945 5.23132L38.1919 -6.89396Z" fill="white"/>
</mask>
<g mask="url(#mask3_785_9206)">
<mask id="mask4_785_9206" style="mask-type:luminance" maskUnits="userSpaceOnUse" x="22" y="-7" width="51" height="57">
<path d="M38.1919 -6.89396L22.5166 37.0615L56.6193 49.1868L72.2945 5.23132L38.1919 -6.89396Z" fill="white"/>
</mask>
<g mask="url(#mask4_785_9206)">
<path d="M38.1919 -6.89396L22.5166 37.0615L56.6193 49.1868L72.2945 5.23132L38.1919 -6.89396Z" fill="url(#paint0_linear_785_9206)"/>
</g>
</g>
</g>
</g>
</g>
<mask id="mask5_785_9206" style="mask-type:luminance" maskUnits="userSpaceOnUse" x="4" y="46" width="42" height="16">
<path d="M15.1344 61.427C15.4616 61.427 15.7973 61.427 16.1331 61.427C16.1761 61.427 16.2191 61.427 16.2622 61.427C16.6065 61.427 16.9595 61.427 17.3211 61.4098C17.3297 61.4098 17.3469 61.4098 17.3555 61.4098C17.5535 61.4098 17.7515 61.4012 17.9495 61.3926C18.0098 61.3926 18.07 61.3926 18.1217 61.3926C18.3025 61.3926 18.4833 61.3754 18.6641 61.3668C18.7501 61.3668 18.8448 61.3668 18.9309 61.3582C19.0945 61.3582 19.2667 61.341 19.4389 61.3324C19.5594 61.3324 19.6799 61.3152 19.7918 61.3152C19.9382 61.3066 20.0845 61.298 20.2395 61.2895C20.515 61.2723 20.7904 61.2551 21.0745 61.2293C21.3414 61.2121 21.6083 61.1863 21.8752 61.1605C22.0645 61.1433 22.2453 61.1175 22.4261 61.1003C22.5036 61.1003 22.5811 61.0831 22.65 61.0746C22.848 61.0488 23.046 61.023 23.2354 60.9972C23.2956 60.9972 23.3559 60.98 23.4161 60.9714C23.6141 60.937 23.8035 60.9112 24.0015 60.8768C24.0532 60.8768 24.1135 60.8597 24.1651 60.8511C24.3545 60.8167 24.5353 60.7823 24.7161 60.7479C24.7763 60.7393 24.8366 60.7221 24.8969 60.7135C25.0776 60.6791 25.2498 60.6447 25.4306 60.6018C25.4909 60.5846 25.5511 60.576 25.6114 60.5674C25.7836 60.533 25.9557 60.49 26.1279 60.447C26.1882 60.4298 26.2484 60.4213 26.3173 60.4041C26.4809 60.3611 26.6531 60.3181 26.8166 60.2751C26.8769 60.2579 26.9458 60.2407 27.006 60.2321C27.1696 60.1892 27.3246 60.1462 27.4881 60.1032C27.5484 60.086 27.6173 60.0688 27.6775 60.0516C27.8325 60.0086 27.9788 59.9657 28.1338 59.9141C28.2027 59.8969 28.2715 59.8797 28.3404 59.8539C28.4867 59.8109 28.6331 59.7594 28.7794 59.7164C28.8483 59.6906 28.9172 59.6734 28.9861 59.6476C29.1324 59.6046 29.2702 59.5531 29.4079 59.5101C29.4768 59.4843 29.5542 59.4671 29.6231 59.4413C29.7609 59.3983 29.8986 59.3468 30.0363 59.2952C30.1052 59.2694 30.1827 59.2436 30.2516 59.2178C30.3893 59.1662 30.5184 59.1233 30.6476 59.0717C30.7251 59.0459 30.7939 59.0201 30.8628 58.9943C30.9919 58.9513 31.1211 58.8998 31.2502 58.8482C31.3277 58.8224 31.4052 58.788 31.4826 58.7622C31.6032 58.7192 31.7323 58.6677 31.8528 58.6161C31.9303 58.5817 32.0078 58.5559 32.0939 58.5215C32.2144 58.4786 32.3349 58.427 32.4554 58.3754C32.5329 58.341 32.619 58.3152 32.6965 58.2809C32.8084 58.2379 32.9289 58.1863 33.0408 58.1433C33.1269 58.1089 33.213 58.0745 33.2991 58.0402C33.4024 57.9972 33.5057 57.9542 33.609 57.9112C33.6348 57.9026 33.6607 57.8854 33.6865 57.8768C33.7554 57.8511 33.8242 57.8167 33.9017 57.7909C33.9878 57.7565 34.0739 57.7221 34.16 57.6877C34.599 57.5072 35.0381 57.3267 35.4771 57.1376C35.5116 57.129 35.5374 57.1118 35.5718 57.1032C35.7182 57.043 35.8645 56.9829 36.0195 56.9227C36.0711 56.9055 36.1228 56.8797 36.1745 56.8625C36.3122 56.8023 36.4499 56.7508 36.5877 56.6992C36.6479 56.6734 36.7082 56.6476 36.7685 56.6304C36.8976 56.5788 37.0267 56.5273 37.1645 56.4757C37.2333 56.4499 37.2936 56.4241 37.3539 56.3983C37.483 56.3468 37.6121 56.2952 37.7413 56.2522C37.8101 56.2264 37.879 56.2006 37.9479 56.1748C38.0684 56.1233 38.1975 56.0803 38.3181 56.0373C38.3869 56.0115 38.4644 55.9857 38.5333 55.9599C38.6538 55.917 38.7743 55.874 38.9035 55.8224C38.9809 55.7966 39.0584 55.7708 39.1273 55.745C39.2478 55.7021 39.3683 55.6591 39.4975 55.6161C39.5749 55.5903 39.6438 55.5645 39.7213 55.5387C39.8418 55.4958 39.9623 55.4614 40.0915 55.4184C40.169 55.3926 40.2464 55.3668 40.3239 55.341C40.4444 55.3066 40.565 55.2637 40.6855 55.2293C40.763 55.2035 40.8491 55.1777 40.9265 55.1605C41.0471 55.1261 41.1676 55.0917 41.2881 55.0574C41.3742 55.0316 41.4517 55.0144 41.5378 54.9886C41.6583 54.9542 41.7788 54.9198 41.8993 54.8854C41.9854 54.8596 42.0715 54.8425 42.1576 54.8167C42.2781 54.7823 42.4073 54.7565 42.5278 54.7307C42.6139 54.7135 42.7 54.6877 42.786 54.6705C42.9066 54.6447 43.0357 54.619 43.1562 54.5846C43.2423 54.5674 43.337 54.5502 43.4231 54.533C43.5436 54.5072 43.6728 54.4814 43.8019 54.4642C43.8966 54.447 43.9827 54.4298 44.0774 54.4127C44.2065 54.3869 44.327 54.3697 44.4562 54.3525C44.5509 54.3353 44.637 54.3267 44.7316 54.3095C44.8608 54.2923 44.9899 54.2751 45.119 54.2579C45.2137 54.2407 45.3084 54.2321 45.4031 54.2235C45.5064 54.215 45.6097 54.1978 45.7131 54.1892C44.5681 53.6476 43.5006 53.0373 42.5278 52.3668C41.2795 52.47 40.1087 52.7107 39.0154 53.0201C37.5519 53.4413 36.2175 53.9829 34.9606 54.4986C31.9819 55.7278 29.4768 56.8023 26.9199 55.6247C26.7908 55.5645 26.6703 55.4958 26.567 55.4356C24.828 54.3439 26.6875 52.5387 29.6662 50.9399C30.5098 50.4843 31.4396 50.0459 32.4038 49.6419C34.1944 48.894 36.097 48.2751 37.7671 47.9055C37.3625 47.3897 36.9837 46.8568 36.6307 46.3066C33.9964 47.0889 31.431 48.2665 28.9947 49.5989C28.306 49.9771 27.6259 50.3725 26.9544 50.768C24.6816 52.1261 22.5466 53.5531 20.6097 54.8425C19.6971 55.4528 18.8276 56.0287 18.0012 56.5531C16.3397 57.6104 14.8848 58.4442 13.6795 58.8568C9.78833 60.2064 7.0335 60.2064 4.69189 59.6046C7.00767 60.6447 10.1843 61.4012 15.0828 61.47C15.1086 61.47 15.1344 61.47 15.1603 61.47" fill="white"/>
</mask>
<g mask="url(#mask5_785_9206)">
<mask id="mask6_785_9206" style="mask-type:luminance" maskUnits="userSpaceOnUse" x="3" y="40" width="46" height="27">
<path d="M45.548 40.6321L3.2373 46.502L6.08539 66.9701L48.3961 61.1003L45.548 40.6321Z" fill="white"/>
</mask>
<g mask="url(#mask6_785_9206)">
<mask id="mask7_785_9206" style="mask-type:luminance" maskUnits="userSpaceOnUse" x="3" y="40" width="46" height="27">
<path d="M45.548 40.6321L3.2373 46.502L6.08539 66.9701L48.3961 61.1003L45.548 40.6321Z" fill="white"/>
</mask>
<g mask="url(#mask7_785_9206)">
<mask id="mask8_785_9206" style="mask-type:luminance" maskUnits="userSpaceOnUse" x="3" y="40" width="46" height="27">
<path d="M45.5394 40.6338L3.2373 46.5024L6.0842 66.9621L48.3863 61.0934L45.5394 40.6338Z" fill="white"/>
</mask>
<g mask="url(#mask8_785_9206)">
<mask id="mask9_785_9206" style="mask-type:luminance" maskUnits="userSpaceOnUse" x="3" y="40" width="46" height="27">
<path d="M45.5482 40.6338L3.24609 46.5024L6.09299 66.9621L48.3951 61.0934L45.5482 40.6338Z" fill="white"/>
</mask>
<g mask="url(#mask9_785_9206)">
<path d="M45.5482 40.6338L3.24609 46.5024L6.09299 66.9621L48.3951 61.0934L45.5482 40.6338Z" fill="url(#paint1_linear_785_9206)"/>
</g>
</g>
</g>
</g>
</g>
<mask id="mask10_785_9206" style="mask-type:luminance" maskUnits="userSpaceOnUse" x="19" y="1" width="19" height="39">
<path d="M20.532 17.8281C20.575 18.043 20.6267 18.2579 20.6784 18.4728C20.6784 18.49 20.6784 18.5072 20.6956 18.533C20.7386 18.7393 20.7903 18.9542 20.8419 19.1605C20.8419 19.1863 20.8591 19.2121 20.8591 19.2464C20.9108 19.4528 20.9624 19.6505 21.0227 19.8568C21.0227 19.8911 21.0399 19.9255 21.0485 19.9599C21.1002 20.1576 21.1604 20.3553 21.2207 20.553C21.2293 20.596 21.2465 20.639 21.2551 20.6734C21.3154 20.8711 21.3671 21.0602 21.4273 21.2579C21.4445 21.3009 21.4618 21.3525 21.4704 21.3954C21.5306 21.5846 21.5909 21.7737 21.6598 21.9714C21.677 22.023 21.6942 22.0745 21.7114 22.1261C21.7717 22.3066 21.8405 22.4957 21.9094 22.6848C21.9266 22.745 21.9525 22.7966 21.9697 22.8568C22.0386 23.0373 22.0988 23.2178 22.1677 23.4069C22.1935 23.4671 22.2107 23.5273 22.2366 23.5874C22.3054 23.7679 22.3743 23.9485 22.4518 24.1204C22.4776 24.1891 22.5034 24.2493 22.5293 24.3181C22.5981 24.4986 22.6756 24.6705 22.7531 24.851C22.7789 24.9198 22.8133 24.9886 22.8392 25.0573C22.9167 25.2293 22.9941 25.4098 23.0716 25.5817C23.106 25.6505 23.1405 25.7278 23.1663 25.7966C23.2438 25.9685 23.3213 26.1404 23.4074 26.3124C23.4418 26.3897 23.4762 26.4585 23.5193 26.5358C23.5968 26.7078 23.6828 26.8711 23.7689 27.043C23.8034 27.1204 23.8464 27.1977 23.8895 27.2751C23.9755 27.4384 24.0616 27.6103 24.1477 27.7737C24.1908 27.851 24.2338 27.937 24.2769 28.0144C24.3629 28.1777 24.4576 28.341 24.5523 28.5129C24.5954 28.5903 24.647 28.6762 24.6901 28.7536C24.7848 28.9169 24.8795 29.0803 24.9742 29.2436C25.0258 29.3295 25.0689 29.4069 25.1205 29.4929C25.1291 29.5101 25.1463 29.5273 25.155 29.5444C25.241 29.6906 25.3271 29.8367 25.4218 29.9742C25.4735 30.0602 25.5251 30.1462 25.5854 30.2321C25.6887 30.3954 25.7834 30.5502 25.8867 30.7135C25.947 30.7995 25.9986 30.8854 26.0589 30.9714C26.1622 31.1261 26.2741 31.2894 26.3774 31.4442C26.4377 31.5301 26.4979 31.6247 26.5582 31.7106C26.6615 31.8654 26.7734 32.0201 26.8853 32.1748C26.9542 32.2608 27.0145 32.3553 27.0833 32.4413C27.1953 32.596 27.3072 32.7507 27.4277 32.9055C27.4966 33 27.5654 33.086 27.6343 33.1805C27.7462 33.3353 27.8667 33.49 27.9873 33.6361C28.0647 33.7307 28.1336 33.8167 28.2111 33.9112C28.3316 34.0659 28.4521 34.2121 28.5727 34.3668C28.6501 34.4613 28.7276 34.5559 28.8051 34.6419C28.9342 34.788 29.0548 34.9427 29.1839 35.0889C29.27 35.1834 29.3475 35.278 29.4336 35.3725C29.4594 35.3983 29.4766 35.4241 29.5024 35.4499C29.6057 35.5702 29.7176 35.6906 29.821 35.8109C29.907 35.9055 29.9931 36 30.0792 36.0946C30.2083 36.2407 30.3461 36.3869 30.4838 36.533C30.5785 36.6275 30.6646 36.7221 30.7593 36.8167C30.8971 36.9628 31.0348 37.1003 31.1725 37.2465C31.2672 37.341 31.3619 37.4356 31.4652 37.5301C31.603 37.6677 31.7493 37.8138 31.8957 37.9513C31.999 38.0459 32.1023 38.149 32.197 38.2436C32.3433 38.3811 32.4897 38.5187 32.636 38.6562C32.7393 38.7507 32.8513 38.8539 32.9546 38.9485C33.1009 39.086 33.2559 39.2235 33.4108 39.3611C33.4539 39.404 33.4969 39.4384 33.5486 39.4814C33.3075 38.682 33.1009 37.8997 32.9287 37.1261C32.5672 36.6791 32.2228 36.2321 31.9043 35.7851C30.5097 33.8768 29.4852 32.0803 28.7535 30.4298C26.7562 25.9169 26.9542 22.5559 27.8237 21.3783C29.3647 19.2894 31.6374 20.1576 33.4539 22.298C34.375 19.5387 35.7266 17.0459 37.3537 14.8195C33.7035 10.8997 30.1137 8.68198 27.4105 7.58169C23.2094 5.87968 21.1002 4.46135 20.3857 1.39258C19.6969 5.18341 19.1202 11.1232 20.532 17.8023C20.532 17.8109 20.532 17.8281 20.532 17.8367" fill="white"/>
</mask>
<g mask="url(#mask10_785_9206)">
<mask id="mask11_785_9206" style="mask-type:luminance" maskUnits="userSpaceOnUse" x="0" y="-8" width="57" height="57">
<path d="M29.7178 -7.53293L0.524414 18.1299L27.4032 48.6152L56.5965 22.9524L29.7178 -7.53293Z" fill="white"/>
</mask>
<g mask="url(#mask11_785_9206)">
<mask id="mask12_785_9206" style="mask-type:luminance" maskUnits="userSpaceOnUse" x="0" y="-8" width="57" height="57">
<path d="M29.7236 -7.52658L0.530273 18.1362L27.409 48.6215L56.6024 22.9587L29.7236 -7.52658Z" fill="white"/>
</mask>
<g mask="url(#mask12_785_9206)">
<mask id="mask13_785_9206" style="mask-type:luminance" maskUnits="userSpaceOnUse" x="0" y="-8" width="57" height="57">
<path d="M29.7236 -7.52658L0.530273 18.1362L27.409 48.6215L56.6024 22.9587L29.7236 -7.52658Z" fill="white"/>
</mask>
<g mask="url(#mask13_785_9206)">
<mask id="mask14_785_9206" style="mask-type:luminance" maskUnits="userSpaceOnUse" x="0" y="-8" width="57" height="57">
<path d="M29.7236 -7.52658L0.530273 18.1362L27.409 48.6215L56.6024 22.9587L29.7236 -7.52658Z" fill="white"/>
</mask>
<g mask="url(#mask14_785_9206)">
<path d="M29.7236 -7.52658L0.530273 18.1362L27.409 48.6215L56.6024 22.9587L29.7236 -7.52658Z" fill="url(#paint2_linear_785_9206)"/>
</g>
</g>
</g>
</g>
</g>
<mask id="mask15_785_9206" style="mask-type:luminance" maskUnits="userSpaceOnUse" x="0" y="34" width="30" height="16">
<path d="M2.25565 37.3494C2.35034 37.4612 2.44504 37.5729 2.54835 37.6847C2.58278 37.7191 2.60861 37.7535 2.64305 37.7878C2.76357 37.9168 2.87548 38.0543 2.99601 38.1833C3.01323 38.2004 3.03044 38.2176 3.04766 38.2434C3.17679 38.3896 3.31454 38.5357 3.45228 38.6818C3.45228 38.6818 3.46949 38.699 3.4781 38.7076C3.62445 38.8623 3.7708 39.0171 3.91715 39.1804C4.07211 39.3437 4.22707 39.4984 4.38203 39.6618C4.69195 39.9884 5.01909 40.3065 5.35483 40.6331C5.35483 40.6331 5.36344 40.6417 5.36344 40.6503C5.52701 40.805 5.68197 40.9598 5.85415 41.1231C5.85415 41.1231 5.87136 41.1403 5.87997 41.1489C6.04354 41.3036 6.1985 41.4497 6.37068 41.6045C6.38789 41.6217 6.40511 41.6302 6.42233 41.6474C6.57729 41.7936 6.74086 41.9311 6.89582 42.0772C6.92164 42.103 6.94747 42.1202 6.9733 42.146C7.12825 42.2835 7.28321 42.4125 7.42956 42.55C7.464 42.5758 7.49844 42.6102 7.53287 42.636C7.67922 42.7649 7.83418 42.8853 7.98053 43.0142C8.02357 43.0486 8.06662 43.083 8.11827 43.1259C8.25601 43.2377 8.40236 43.358 8.54871 43.4698C8.60037 43.5128 8.66063 43.5557 8.71228 43.5987C8.85002 43.7019 8.97916 43.8136 9.1169 43.9168C9.18577 43.9684 9.25464 44.0199 9.3149 44.0715C9.44403 44.1661 9.56456 44.2606 9.69369 44.3552C9.77117 44.4153 9.84865 44.4669 9.92613 44.5271C10.0467 44.6131 10.1672 44.699 10.2877 44.785C10.3738 44.8451 10.4685 44.9053 10.5546 44.9655C10.6665 45.0429 10.7784 45.1202 10.8903 45.1976C10.985 45.2663 11.0883 45.3265 11.1916 45.3953C11.2949 45.4641 11.3982 45.5328 11.5102 45.6016C11.6221 45.6704 11.7254 45.7391 11.8373 45.8079C11.932 45.8681 12.0353 45.9282 12.13 45.9884C12.2505 46.0572 12.3624 46.1259 12.483 46.1947C12.569 46.2463 12.6637 46.3065 12.7584 46.358C12.8876 46.4268 13.0081 46.4956 13.1372 46.5643C13.2233 46.6073 13.3094 46.6589 13.3955 46.7105C13.5246 46.7792 13.6624 46.848 13.7915 46.9168C13.869 46.9598 13.9551 47.0027 14.0412 47.0457C14.1789 47.1145 14.3253 47.1747 14.463 47.2434C14.5405 47.2778 14.618 47.3208 14.6954 47.3552C14.8418 47.4239 14.9881 47.4841 15.1345 47.5443C15.212 47.5787 15.2808 47.6131 15.3583 47.6388C15.5133 47.699 15.6682 47.7592 15.8232 47.8194C15.8921 47.8451 15.9609 47.8795 16.0298 47.8967C16.1934 47.9569 16.3483 48.0085 16.5119 48.0686C16.5722 48.0944 16.641 48.1116 16.7013 48.1374C16.8735 48.1976 17.0456 48.2492 17.2178 48.3007C17.2695 48.3179 17.3211 48.3351 17.3814 48.3523C17.6138 48.4211 17.8377 48.4727 18.0701 48.5328C19.9813 48.997 22.0818 49.2463 24.3201 49.3924C26.0247 48.2835 27.9014 47.1661 29.9417 46.1603C19.878 45.6532 15.5735 41.2004 17.3297 39.7735C18.5866 38.7506 20.4892 38.6045 22.4004 38.828C20.5236 37.762 19.0859 36.4641 18.0012 34.9941C13.9723 35.1747 10.6665 35.6646 8.48845 36.0944C5.26013 36.7391 2.65165 36.232 0.706055 35.4841C0.878232 35.699 1.05041 35.9225 1.2398 36.146C1.34311 36.2749 1.44642 36.4039 1.55833 36.5328C1.60137 36.5844 1.63581 36.6274 1.67885 36.679C1.75633 36.7649 1.8252 36.8595 1.90268 36.9454C1.97156 37.0314 2.04043 37.1088 2.11791 37.1947C2.16956 37.2549 2.2126 37.3065 2.26426 37.3666" fill="white"/>
</mask>
<g mask="url(#mask15_785_9206)">
<mask id="mask16_785_9206" style="mask-type:luminance" maskUnits="userSpaceOnUse" x="-5" y="24" width="41" height="36">
<path d="M5.53229 24.1892L-4.10303 46.8877L25.8582 59.568L35.4935 36.8695L5.53229 24.1892Z" fill="white"/>
</mask>
<g mask="url(#mask16_785_9206)">
<mask id="mask17_785_9206" style="mask-type:luminance" maskUnits="userSpaceOnUse" x="-5" y="24" width="41" height="36">
<path d="M5.54108 24.1892L-4.09424 46.8877L25.867 59.568L35.5023 36.8695L5.54108 24.1892Z" fill="white"/>
</mask>
<g mask="url(#mask17_785_9206)">
<mask id="mask18_785_9206" style="mask-type:luminance" maskUnits="userSpaceOnUse" x="-5" y="24" width="41" height="36">
<path d="M5.53772 24.1966L-4.09424 46.8872L25.867 59.5675L35.4989 36.8769L5.53772 24.1966Z" fill="white"/>
</mask>
<g mask="url(#mask18_785_9206)">
<mask id="mask19_785_9206" style="mask-type:luminance" maskUnits="userSpaceOnUse" x="-5" y="24" width="41" height="36">
<path d="M5.54114 24.1888L-4.09082 46.8794L25.8704 59.5597L35.5024 36.8691L5.54114 24.1888Z" fill="white"/>
</mask>
<g mask="url(#mask19_785_9206)">
<path d="M5.54114 24.1888L-4.09082 46.8794L25.8704 59.5597L35.5024 36.8691L5.54114 24.1888Z" fill="url(#paint3_linear_785_9206)"/>
</g>
</g>
</g>
</g>
</g>
<mask id="mask20_785_9206" style="mask-type:luminance" maskUnits="userSpaceOnUse" x="27" y="20" width="7" height="18">
<path d="M27.8154 21.3782C26.9459 22.5644 26.7393 25.9169 28.7452 30.4298C29.4769 32.0802 30.5014 33.8768 31.896 35.7851C32.2145 36.2235 32.5589 36.6705 32.9205 37.126C32.8258 36.722 32.7397 36.318 32.6708 35.9226C32.3953 34.4785 32.2404 33.0773 32.1715 31.7278C32.0165 28.298 32.4986 25.1604 33.4456 22.3066C31.6291 20.1576 29.3564 19.2894 27.8154 21.3868" fill="white"/>
</mask>
<g mask="url(#mask20_785_9206)">
<mask id="mask21_785_9206" style="mask-type:luminance" maskUnits="userSpaceOnUse" x="22" y="17" width="17" height="22">
<path d="M33.2456 17.6525L22.5601 20.4775L27.4187 38.8003L38.1042 35.9753L33.2456 17.6525Z" fill="white"/>
</mask>
<g mask="url(#mask21_785_9206)">
<mask id="mask22_785_9206" style="mask-type:luminance" maskUnits="userSpaceOnUse" x="22" y="17" width="17" height="22">
<path d="M33.2456 17.6525L22.5601 20.4775L27.4187 38.8003L38.1042 35.9753L33.2456 17.6525Z" fill="white"/>
</mask>
<g mask="url(#mask22_785_9206)">
<mask id="mask23_785_9206" style="mask-type:luminance" maskUnits="userSpaceOnUse" x="22" y="17" width="17" height="22">
<path d="M33.2456 17.6525L22.5601 20.4775L27.4187 38.8003L38.1042 35.9753L33.2456 17.6525Z" fill="white"/>
</mask>
<g mask="url(#mask23_785_9206)">
<mask id="mask24_785_9206" style="mask-type:luminance" maskUnits="userSpaceOnUse" x="22" y="17" width="17" height="22">
<path d="M33.2456 17.6525L22.5601 20.4775L27.4187 38.8003L38.1042 35.9753L33.2456 17.6525Z" fill="white"/>
</mask>
<g mask="url(#mask24_785_9206)">
<path d="M33.2456 17.6525L22.5601 20.4775L27.4187 38.8003L38.1042 35.9753L33.2456 17.6525Z" fill="url(#paint4_linear_785_9206)"/>
</g>
</g>
</g>
</g>
</g>
<mask id="mask25_785_9206" style="mask-type:luminance" maskUnits="userSpaceOnUse" x="16" y="38" width="20" height="9">
<path d="M22.3917 38.8196C23.0029 39.1634 23.6658 39.4901 24.3717 39.7824C28.2801 41.407 31.827 42.5846 35.1414 43.6505C35.1844 43.7451 35.2361 43.8311 35.2791 43.9256C33.4024 44.5617 31.6118 45.3182 29.933 46.152C19.8693 45.6448 15.5649 41.1921 17.3211 39.7652C17.6224 39.4385 19.6196 38.3468 22.3917 38.8196Z" fill="white"/>
</mask>
<g mask="url(#mask25_785_9206)">
<mask id="mask26_785_9206" style="mask-type:luminance" maskUnits="userSpaceOnUse" x="13" y="32" width="26" height="21">
<path d="M18.2124 32.2631L13.5352 45.4004L33.5058 52.4892L38.183 39.352L18.2124 32.2631Z" fill="white"/>
</mask>
<g mask="url(#mask26_785_9206)">
<mask id="mask27_785_9206" style="mask-type:luminance" maskUnits="userSpaceOnUse" x="13" y="32" width="26" height="21">
<path d="M18.2041 32.2517L13.5298 45.3809L33.4923 52.4668L38.1666 39.3376L18.2041 32.2517Z" fill="white"/>
</mask>
<g mask="url(#mask27_785_9206)">
<mask id="mask28_785_9206" style="mask-type:luminance" maskUnits="userSpaceOnUse" x="13" y="32" width="26" height="21">
<path d="M18.21 32.2598L13.5386 45.3809L33.5011 52.4668L38.1725 39.3457L18.21 32.2598Z" fill="white"/>
</mask>
<g mask="url(#mask28_785_9206)">
<mask id="mask29_785_9206" style="mask-type:luminance" maskUnits="userSpaceOnUse" x="13" y="32" width="26" height="21">
<path d="M18.2101 32.2508L13.5415 45.3638L33.4959 52.4468L38.1645 39.3339L18.2101 32.2508Z" fill="white"/>
</mask>
<g mask="url(#mask29_785_9206)">
<path d="M18.2101 32.2508L13.5415 45.3638L33.4959 52.4468L38.1645 39.3339L18.2101 32.2508Z" fill="url(#paint5_linear_785_9206)"/>
</g>
</g>
</g>
</g>
</g>
<mask id="mask30_785_9206" style="mask-type:luminance" maskUnits="userSpaceOnUse" x="25" y="47" width="18" height="10">
<path d="M37.7499 47.854C38.2578 48.5073 38.8173 49.1348 39.4028 49.7279C40.3325 50.6649 41.357 51.5331 42.5019 52.3153C41.2537 52.4185 40.0829 52.6592 38.9895 52.9686C37.526 53.3898 36.1917 53.9314 34.9348 54.4471C31.9561 55.6764 29.4509 56.7509 26.8941 55.5732C26.765 55.513 26.6444 55.4443 26.5411 55.3841C24.8021 54.2924 26.6617 52.4872 29.6403 50.8884C30.484 50.4328 31.4137 49.9944 32.3779 49.5904C32.3779 49.5904 36.6049 47.9228 37.7412 47.854" fill="white"/>
</mask>
<g mask="url(#mask30_785_9206)">
<mask id="mask31_785_9206" style="mask-type:luminance" maskUnits="userSpaceOnUse" x="23" y="44" width="22" height="16">
<path d="M42.1574 44.799L23.4609 48.1748L25.5826 59.8902L44.2791 56.5144L42.1574 44.799Z" fill="white"/>
</mask>
<g mask="url(#mask31_785_9206)">
<mask id="mask32_785_9206" style="mask-type:luminance" maskUnits="userSpaceOnUse" x="23" y="44" width="22" height="16">
<path d="M42.1574 44.799L23.4609 48.1748L25.5811 59.8818L44.2776 56.506L42.1574 44.799Z" fill="white"/>
</mask>
<g mask="url(#mask32_785_9206)">
<mask id="mask33_785_9206" style="mask-type:luminance" maskUnits="userSpaceOnUse" x="23" y="44" width="22" height="16">
<path d="M42.1574 44.799L23.4609 48.1748L25.5795 59.8733L44.276 56.4975L42.1574 44.799Z" fill="white"/>
</mask>
<g mask="url(#mask33_785_9206)">
<mask id="mask34_785_9206" style="mask-type:luminance" maskUnits="userSpaceOnUse" x="23" y="44" width="22" height="16">
<path d="M42.1574 44.799L23.4609 48.1748L25.578 59.8649L44.2745 56.489L42.1574 44.799Z" fill="white"/>
</mask>
<g mask="url(#mask34_785_9206)">
<path d="M42.1574 44.799L23.4609 48.1748L25.578 59.8649L44.2745 56.489L42.1574 44.799Z" fill="url(#paint6_linear_785_9206)"/>
</g>
</g>
</g>
</g>
</g>
<mask id="mask35_785_9206" style="mask-type:luminance" maskUnits="userSpaceOnUse" x="37" y="24" width="20" height="32">
<path d="M55.4754 54.9027C55.4754 54.9027 55.4582 54.8941 55.4495 54.8855C54.0635 53.9486 52.8066 52.9686 51.6703 51.9629C51.5842 51.8855 51.4895 51.8082 51.4034 51.7308C51.2226 51.5675 51.0504 51.4128 50.8782 51.2494C49.7591 50.1921 48.7777 49.109 47.9082 48.0002C47.7102 47.7423 47.5122 47.4844 47.3228 47.2265C46.9354 46.6936 46.5652 46.152 46.2295 45.6105C45.8421 44.9916 45.4891 44.3641 45.1706 43.7366C44.964 43.3325 44.7746 42.9199 44.5938 42.5159C44.5938 42.5073 44.5938 42.4987 44.5766 42.4815C44.1117 41.4242 43.7329 40.3497 43.4316 39.2838C43.0786 38.003 42.8462 36.7222 42.7171 35.4586C42.3641 32.0116 42.8118 28.6592 43.8276 25.642C43.3111 24.5073 42.476 23.9916 41.3569 24.9715C39.7642 26.3641 35.7353 32.6219 38.4643 40.9686C38.5332 41.1148 38.602 41.2695 38.6795 41.4156C38.7226 41.5102 38.7742 41.6047 38.8173 41.6993C39.3768 42.8082 40.0139 43.8827 40.737 44.9228C40.8403 45.0775 40.9522 45.2323 41.0642 45.387C41.2449 45.6363 41.4257 45.877 41.6151 46.1176C41.6496 46.152 41.6754 46.195 41.7098 46.2294C42.1144 46.7365 42.5363 47.2265 42.9839 47.7079C43.0356 47.7595 43.0786 47.811 43.1303 47.8626C43.268 48.0002 43.3972 48.1463 43.5349 48.2838C43.6985 48.4472 43.862 48.6105 44.0342 48.7738C44.1375 48.8684 44.2408 48.9715 44.3441 49.0661C44.4819 49.195 44.6196 49.3153 44.766 49.4443C44.8521 49.5217 44.9295 49.5904 45.0156 49.6678C45.2481 49.8655 45.4805 50.0632 45.7129 50.2523C45.7302 50.2609 45.7474 50.2781 45.756 50.2867C46.1003 50.5618 46.4533 50.8282 46.8149 51.0947C46.8321 51.1033 46.8407 51.1205 46.8579 51.1291C47.2109 51.3784 47.5725 51.6277 47.9426 51.8684C47.9857 51.8941 48.0373 51.9285 48.0804 51.9543C48.3817 52.1434 48.6916 52.3325 49.0015 52.5131C49.0532 52.5474 49.1134 52.5732 49.1651 52.6076C49.4922 52.7967 49.828 52.9772 50.1723 53.1578C51.0332 53.6047 51.9457 54.0174 52.9013 54.3956C52.9013 54.3956 52.9099 54.3956 52.9185 54.3956C54.0119 54.8254 55.1741 55.2036 56.3879 55.5302C56.078 55.3239 55.7681 55.1176 55.4495 54.9027" fill="white"/>
</mask>
<g mask="url(#mask35_785_9206)">
<mask id="mask36_785_9206" style="mask-type:luminance" maskUnits="userSpaceOnUse" x="23" y="16" width="45" height="48">
<path d="M52.6626 16.7155L23.6875 29.4639L38.7079 63.5009L67.683 50.7525L52.6626 16.7155Z" fill="white"/>
</mask>
<g mask="url(#mask36_785_9206)">
<mask id="mask37_785_9206" style="mask-type:luminance" maskUnits="userSpaceOnUse" x="23" y="16" width="45" height="48">
<path d="M52.6547 16.719L23.6953 29.4604L38.7157 63.4975L67.6751 50.756L52.6547 16.719Z" fill="white"/>
</mask>
<g mask="url(#mask37_785_9206)">
<mask id="mask38_785_9206" style="mask-type:luminance" maskUnits="userSpaceOnUse" x="23" y="16" width="45" height="48">
<path d="M52.6624 16.7151L23.7109 29.4531L38.7313 63.4901L67.6828 50.7521L52.6624 16.7151Z" fill="white"/>
</mask>
<g mask="url(#mask38_785_9206)">
<mask id="mask39_785_9206" style="mask-type:luminance" maskUnits="userSpaceOnUse" x="23" y="16" width="45" height="48">
<path d="M52.6599 16.7108L23.7241 29.4419L38.7445 63.4789L67.6802 50.7478L52.6599 16.7108Z" fill="white"/>
</mask>
<g mask="url(#mask39_785_9206)">
<path d="M52.6599 16.7108L23.7241 29.4419L38.7445 63.4789L67.6802 50.7478L52.6599 16.7108Z" fill="url(#paint7_linear_785_9206)"/>
</g>
</g>
</g>
</g>
</g>
<mask id="mask40_785_9206" style="mask-type:luminance" maskUnits="userSpaceOnUse" x="9" y="55" width="51" height="11">
<path d="M57.6793 56.2777C57.6104 56.2519 57.5329 56.2261 57.464 56.2089C57.1283 56.1058 56.7926 56.0112 56.4654 55.9252C56.3793 55.8995 56.2932 55.8823 56.1985 55.8565C55.88 55.7791 55.5615 55.7018 55.243 55.6416C55.1569 55.6244 55.0794 55.6072 54.9933 55.5986C54.7609 55.5556 54.5198 55.5126 54.2788 55.4783C54.1496 55.4525 54.0119 55.4353 53.8828 55.4181C53.6073 55.3837 53.3404 55.3493 53.0649 55.3149C52.9014 55.2977 52.7378 55.2891 52.5742 55.272C52.4279 55.2634 52.2901 55.2462 52.1438 55.2376C51.963 55.229 51.7908 55.2118 51.61 55.2032C51.1796 55.186 50.7577 55.1774 50.3273 55.186C50.1465 55.186 49.9657 55.186 49.7936 55.186C49.6644 55.186 49.5353 55.186 49.4062 55.1946C49.0876 55.2118 48.7691 55.229 48.4592 55.2462C47.2539 55.3407 46.0745 55.504 44.9123 55.7275C43.1561 56.0628 41.4516 56.527 39.7987 57.0599C34.5129 58.7619 29.8038 61.143 26.1709 62.1745C19.0083 64.2204 12.4484 63.1889 9.86572 62.1487C26.2225 69.6273 34.7969 64.0742 40.6682 60.9367C40.9523 60.782 41.245 60.6359 41.5291 60.4897C41.641 60.4295 41.7615 60.378 41.8734 60.3178C42.0456 60.2318 42.2178 60.1459 42.3899 60.0685C42.5363 59.9997 42.6913 59.931 42.8376 59.8622C42.9754 59.802 43.1217 59.7333 43.2594 59.6731C43.4316 59.5957 43.6038 59.527 43.776 59.4496C43.8965 59.398 44.0084 59.3464 44.1289 59.3035C44.3183 59.2261 44.5163 59.1487 44.7143 59.0714C44.809 59.037 44.9123 58.994 45.007 58.9596C45.2137 58.8823 45.4289 58.8049 45.6355 58.7275C45.7216 58.6932 45.7991 58.6674 45.8851 58.633C46.109 58.5556 46.3328 58.4783 46.5566 58.4009C46.6255 58.3751 46.6944 58.3579 46.7632 58.3321C47.0043 58.2548 47.2367 58.1774 47.4778 58.1086C47.5294 58.0914 47.5897 58.0742 47.6413 58.0571C47.891 57.9797 48.1407 57.9109 48.3989 57.8422C48.442 57.8336 48.485 57.8164 48.5194 57.8078C48.7863 57.739 49.0446 57.6702 49.3115 57.6101C49.3459 57.6101 49.3717 57.5929 49.4062 57.5843C49.673 57.5155 49.9485 57.4553 50.224 57.4038C50.2412 57.4038 50.267 57.3952 50.2843 57.3866C50.5684 57.3264 50.8524 57.2748 51.1279 57.2146H51.1624C51.4465 57.1545 51.7392 57.1029 52.0319 57.0599C52.0319 57.0599 52.0405 57.0599 52.0491 57.0599C52.3418 57.0169 52.6345 56.974 52.9272 56.931C53.6761 56.8364 54.4251 56.7677 55.1655 56.7247C56.233 56.6645 57.2919 56.6731 58.3421 56.7247C58.411 56.7247 58.4713 56.7333 58.5401 56.7419C58.7468 56.7591 58.9534 56.7677 59.16 56.7848C58.6607 56.5871 58.1614 56.4066 57.662 56.2519" fill="white"/>
</mask>
<g mask="url(#mask40_785_9206)">
<mask id="mask41_785_9206" style="mask-type:luminance" maskUnits="userSpaceOnUse" x="7" y="45" width="56" height="35">
<path d="M57.3198 45.7167L7.16504 56.106L12.0807 79.7655L62.2354 69.3763L57.3198 45.7167Z" fill="white"/>
</mask>
<g mask="url(#mask41_785_9206)">
<mask id="mask42_785_9206" style="mask-type:luminance" maskUnits="userSpaceOnUse" x="7" y="45" width="56" height="35">
<path d="M57.3281 45.7235L7.17334 56.1128L12.089 79.7724L62.2437 69.3831L57.3281 45.7235Z" fill="white"/>
</mask>
<g mask="url(#mask42_785_9206)">
<mask id="mask43_785_9206" style="mask-type:luminance" maskUnits="userSpaceOnUse" x="7" y="45" width="56" height="35">
<path d="M57.328 45.7238L7.18164 56.1113L12.0973 79.7709L62.2436 69.3834L57.328 45.7238Z" fill="white"/>
</mask>
<g mask="url(#mask43_785_9206)">
<mask id="mask44_785_9206" style="mask-type:luminance" maskUnits="userSpaceOnUse" x="7" y="45" width="56" height="35">
<path d="M57.3278 45.7236L7.18994 56.1094L12.1056 79.7689L62.2435 69.3832L57.3278 45.7236Z" fill="white"/>
</mask>
<g mask="url(#mask44_785_9206)">
<path d="M57.3278 45.7236L7.18994 56.1094L12.1056 79.7689L62.2435 69.3832L57.3278 45.7236Z" fill="url(#paint8_linear_785_9206)"/>
</g>
</g>
</g>
</g>
</g>
<mask id="mask45_785_9206" style="mask-type:luminance" maskUnits="userSpaceOnUse" x="45" y="1" width="28" height="60">
<path d="M71.2211 59.7939C68.9656 58.0747 64.3685 54.4816 60.6839 49.5389C57.7999 45.6707 55.4755 40.9859 55.2517 35.708C55.2345 35.347 55.2259 34.9945 55.2259 34.6421C55.2259 34.5561 55.2259 34.4702 55.2259 34.3842C55.2259 34.0404 55.2259 33.7051 55.2259 33.3699C55.2259 33.0346 55.2431 32.7166 55.2517 32.3985C55.2517 32.3212 55.2517 32.2438 55.2603 32.1664C55.2775 31.8484 55.2948 31.5389 55.312 31.2381C55.3378 30.9372 55.3636 30.6449 55.3895 30.3527C55.3895 30.2839 55.4067 30.2151 55.4153 30.1464C55.4755 29.5704 55.553 29.0203 55.6391 28.4874C55.6391 28.4272 55.6563 28.367 55.6649 28.3068C55.7596 27.7825 55.8629 27.2753 55.9749 26.7853C55.9835 26.7338 56.0007 26.6822 56.0093 26.6306C56.1212 26.1492 56.2503 25.6851 56.3795 25.2381C56.3967 25.1951 56.4053 25.1435 56.4225 25.1005C56.5603 24.6621 56.698 24.2323 56.853 23.8283C56.8702 23.7853 56.8874 23.7424 56.896 23.6994C57.0424 23.2954 57.1973 22.9086 57.3609 22.5303C57.3781 22.4959 57.3953 22.453 57.4125 22.4186C57.5675 22.049 57.7311 21.6879 57.8946 21.3441C57.9119 21.3097 57.9291 21.2753 57.9463 21.2409C58.0324 21.069 58.1099 20.8971 58.1959 20.7338C58.282 20.5704 58.3595 20.4071 58.4456 20.2438C58.4628 20.2094 58.48 20.175 58.4973 20.1406C58.6694 19.814 58.833 19.4959 58.9966 19.1865C59.0138 19.1435 59.0396 19.1091 59.0568 19.0661C59.0654 19.049 59.074 19.0318 59.0827 19.0146C59.1774 18.8427 59.2634 18.6707 59.3495 18.4988C59.384 18.4386 59.4184 18.3785 59.4442 18.3183C59.5475 18.1206 59.6508 17.9229 59.7541 17.7252C59.8488 17.5361 59.9435 17.347 60.0382 17.1578C60.0641 17.1149 60.0813 17.0633 60.1071 17.0117C60.176 16.8656 60.2449 16.728 60.3051 16.5819C60.3309 16.5303 60.3482 16.4788 60.374 16.4272C60.4515 16.2381 60.5375 16.0576 60.6064 15.8684C60.6753 15.6793 60.7442 15.4988 60.8044 15.3097C60.8216 15.2581 60.8389 15.2065 60.8561 15.155C60.8991 15.0174 60.9422 14.8713 60.9766 14.7338C60.9938 14.6822 61.011 14.622 61.0196 14.5704C61.0713 14.3813 61.1143 14.1922 61.1488 14.0031C62.0699 8.85411 60.9594 3.70512 59.4959 1.68506C60.2276 3.88563 59.1257 11.0633 55.4411 14.9229C55.3464 15.026 55.2431 15.1292 55.1312 15.2409C55.1312 15.2495 55.114 15.2667 55.0968 15.2753C54.9074 15.4644 54.7094 15.6707 54.4941 15.8942C54.2961 16.1005 54.0809 16.324 53.8571 16.5475C53.8399 16.5647 53.8313 16.5733 53.814 16.5905C53.7021 16.7023 53.5988 16.8226 53.4869 16.9343C53.4697 16.9515 53.4525 16.9773 53.4266 16.9945C53.3147 17.1149 53.2028 17.2266 53.0909 17.347C53.0737 17.3641 53.0565 17.3899 53.0306 17.4071C52.9187 17.5275 52.8068 17.6564 52.6863 17.7853C52.6863 17.7853 52.6863 17.8025 52.6777 17.8025C52.5313 17.9659 52.3764 18.1378 52.2214 18.3097C52.187 18.3441 52.1611 18.3871 52.1267 18.4214C51.9976 18.5676 51.877 18.7137 51.7479 18.8598C51.7049 18.92 51.6532 18.9716 51.6016 19.0318C51.4897 19.1693 51.3777 19.3068 51.2658 19.4444C51.2056 19.5131 51.1539 19.5819 51.0936 19.6593C50.9903 19.7882 50.887 19.9257 50.7751 20.0547C50.7149 20.132 50.6546 20.218 50.5943 20.2954C50.491 20.4243 50.3963 20.5618 50.293 20.6994C50.2328 20.7853 50.1639 20.8713 50.1036 20.9573C50.0003 21.0948 49.9056 21.2323 49.8109 21.3785C49.7507 21.4644 49.6904 21.5504 49.6301 21.6363C49.5268 21.7911 49.4235 21.9458 49.3202 22.1091C49.2686 22.1865 49.2169 22.2639 49.1653 22.3412C49.0103 22.5819 48.864 22.8226 48.7176 23.0719C47.7018 24.7825 46.8323 26.6994 46.3071 28.8226C45.2913 32.8627 45.4979 37.6163 48.2527 43.049C48.2786 43.1005 48.3044 43.1521 48.3388 43.2037C48.8037 44.0977 49.3116 44.9573 49.854 45.7739C50.0692 46.0919 50.293 46.41 50.5169 46.7194C50.844 47.1578 51.1711 47.579 51.5155 47.9917C51.834 48.3785 52.1611 48.7481 52.4883 49.1091C52.7379 49.3842 52.9962 49.6507 53.2545 49.9086C54.0551 50.708 54.8815 51.4644 55.7338 52.1607C59.823 55.5045 64.4546 57.7051 68.3027 59.1664C69.4133 59.5876 70.4549 59.9487 71.4019 60.2581C71.6688 60.3441 71.9271 60.43 72.1767 60.5074C71.9443 60.3269 71.6085 60.069 71.2039 59.7596" fill="white"/>
</mask>
<g mask="url(#mask45_785_9206)">
<mask id="mask46_785_9206" style="mask-type:luminance" maskUnits="userSpaceOnUse" x="22" y="-9" width="73" height="80">
<path d="M67.6174 -8.5148L22.9756 12.1763L50.2473 70.8404L94.8891 50.1494L67.6174 -8.5148Z" fill="white"/>
</mask>
<g mask="url(#mask46_785_9206)">
<mask id="mask47_785_9206" style="mask-type:luminance" maskUnits="userSpaceOnUse" x="22" y="-9" width="73" height="80">
<path d="M67.5974 -8.49613L22.979 12.1841L50.2507 70.8483L94.8691 50.168L67.5974 -8.49613Z" fill="white"/>
</mask>
<g mask="url(#mask47_785_9206)">
<mask id="mask48_785_9206" style="mask-type:luminance" maskUnits="userSpaceOnUse" x="22" y="-9" width="73" height="80">
<path d="M67.5691 -8.48577L22.9741 12.1836L50.2422 70.84L94.8372 50.1706L67.5691 -8.48577Z" fill="white"/>
</mask>
<g mask="url(#mask48_785_9206)">
<mask id="mask49_785_9206" style="mask-type:luminance" maskUnits="userSpaceOnUse" x="22" y="-9" width="73" height="80">
<path d="M67.5608 -8.4627L22.9893 12.1958L50.2537 70.8444L94.8252 50.1859L67.5608 -8.4627Z" fill="white"/>
</mask>
<g mask="url(#mask49_785_9206)">
<path d="M67.5608 -8.4627L22.9893 12.1958L50.2537 70.8444L94.8252 50.1859L67.5608 -8.4627Z" fill="url(#paint9_linear_785_9206)"/>
</g>
</g>
</g>
</g>
</g>
<path d="M71.7892 49.2206C69.6542 49.2206 67.9238 47.4241 67.9238 45.1977C67.9238 42.9714 69.6542 41.1748 71.7892 41.1748C73.9242 41.1748 75.6546 42.98 75.6546 45.1977C75.6546 47.4155 73.9242 49.2206 71.7892 49.2206Z" fill="#F6C1D8"/>
<path d="M60.4941 86.7422C61.8716 86.089 59.4525 85.4614 60.5372 84.5933C61.2603 84.0173 61.8371 84.8082 62.0523 85.5732C62.2676 86.3296 62.4483 86.5016 62.6636 85.6334C62.8788 84.7652 63.0251 84.5932 63.7827 84.8167C64.5403 85.0316 64.5403 86.003 63.886 86.3296C63.2317 86.6477 62.8444 87.0861 63.6019 87.301C64.3595 87.5159 64.3337 87.1634 64.6436 87.619C65.2204 88.4614 63.7138 89.5188 63.3781 88.917C62.9735 88.1692 62.4914 87.9887 62.4914 88.8569C62.4914 89.2093 62.345 90.1033 61.708 89.9743C60.9246 89.8024 60.3306 89.0632 60.9848 88.5216C61.3808 88.195 61.3464 87.4815 60.8213 87.9973C60.408 88.4099 59.3405 88.6334 59.2889 87.5932C59.2114 86.1061 59.6935 87.1119 60.4769 86.7422" fill="#00B0C7"/>
<path d="M58.9619 82.0057C59.4612 81.6619 58.85 81.3094 58.7725 81.0172C58.6434 80.9484 58.2904 81.0344 58.3593 80.7937L58.2904 80.871L58.3593 80.9484C58.1785 81.0429 58.0838 80.7421 57.8772 80.7937C57.2487 80.9914 56.4825 80.8882 55.8369 81.0172C55.415 80.3037 54.778 81.1289 54.2614 80.871V80.7937L54.1495 80.9914C54.0032 81.0687 54.0204 80.8538 53.9601 80.8366C53.9085 80.8968 53.8482 80.9914 53.7363 80.9484C53.4178 80.6819 52.9959 81.0945 52.6602 80.9484C52.2125 81.2493 51.7735 80.8109 51.2828 80.9914C50.9298 81.404 50.6371 80.8195 50.2067 80.9914C49.9656 80.7937 50.1722 80.6132 50.1722 80.3209C50.706 80.149 50.0087 79.6762 50.508 79.4871C50.4908 79.2206 50.9729 79.0143 50.7318 78.7306C50.9901 78.4298 51.0331 77.9398 50.8782 77.5186C50.7663 76.8739 50.0259 76.8223 49.5782 76.6074C49.5438 77.0458 48.9498 76.9083 49.1736 77.4412C49.0273 77.5186 48.8551 77.5874 48.726 77.7077C49.2253 78.2235 48.2266 78.3696 48.4677 78.9627C48.4505 79.4957 48.3213 80.0286 47.822 80.4584L47.7101 80.3209C47.5035 80.2091 47.2452 80.2865 47.0042 80.2435C46.8578 80.2693 46.8751 79.9427 46.7115 80.0888L46.4877 79.8653C46.4102 79.9599 46.3413 80.02 46.2294 80.02C45.9109 79.4699 45.8592 80.3209 45.489 80.1318C45.5493 79.9427 45.248 79.9083 45.1533 79.7192L45.0758 79.7965L44.9639 79.6848C44.9122 79.659 44.8864 79.7364 44.852 79.7621C44.3871 79.6504 44.2407 80.1404 43.8533 80.063C43.6467 80.2951 43.552 79.7192 43.2938 79.8739L43.1474 79.7192C42.7945 79.6074 43.0786 79.2034 42.6223 79.1862C42.4587 79.1175 42.3812 79.3066 42.2865 79.3753C42.123 79.1432 41.9164 79.5215 41.6925 79.3409L41.3998 79.7192C41.176 79.8309 41.2363 79.5301 41.0469 79.5644C40.7886 79.7192 40.978 80.2263 40.5992 80.1318C40.3754 80.149 40.2462 79.5644 39.8933 79.8309C39.2993 79.3925 39.6092 80.3811 39.1529 80.2091C38.9463 79.9599 38.7483 80.4154 38.5245 80.4928C38.3609 80.5874 38.5245 80.7765 38.6364 80.8366C38.6708 80.9484 38.6019 81.0086 38.5589 81.1031C38.3006 81.1977 38.3953 80.8624 38.2232 80.8366L38.1457 80.914C38.1457 80.914 38.1112 81.0258 38.1801 81.0687C38.0165 81.1461 37.9219 81.3696 37.7411 81.4126C37.698 81.5673 37.8358 81.6361 37.8874 81.7564C37.8099 82.212 37.5345 81.7048 37.3278 81.7564C37.1557 81.9283 36.8457 81.8338 36.8888 82.1776C37.1643 82.3495 37.0524 82.5386 37.1815 82.7879C37.0007 82.977 36.8457 83.0372 36.6219 83.0888C36.553 83.2005 36.6047 83.3381 36.7338 83.3982C36.4928 83.6647 37.0351 83.7593 36.665 84.0086C37.4484 84.1375 36.3723 84.6533 36.7769 84.9971C37.0954 85.0745 37.1643 85.5301 37.4828 85.6074L37.4053 85.8309C37.4484 85.9599 37.5689 85.8911 37.6636 85.9083V85.8309C37.6636 85.8309 37.7411 85.7879 37.7755 85.7879C38.0165 85.977 37.8702 86.2865 38.1887 86.4326C38.5761 86.4326 38.1887 86.828 38.49 86.9656C38.7139 87.0429 38.6536 86.8882 38.8258 86.8109C38.9893 86.9312 38.9721 87.1375 39.1185 87.1977L39.3423 87.043C39.3767 87.0945 39.437 87.1203 39.4198 87.1547C39.592 87.1375 39.7211 87.2321 39.833 87.3266C39.833 87.404 39.8675 87.4899 39.7986 87.5501H40.3926C40.6509 87.5157 40.8058 87.2321 40.9952 87.5501L41.0296 87.5157L41.1416 87.6275C41.529 87.6103 41.2879 87.2664 41.529 87.0773C41.5462 87.1977 41.6237 87.2664 41.6064 87.404C41.8905 87.6361 41.8475 87.0945 42.166 87.1547C42.1832 87.2063 42.2607 87.2321 42.2435 87.2836H42.5792V87.1891C42.8719 87.2664 42.9322 86.957 43.0613 86.7679C43.2077 87.0687 43.466 86.8624 43.7328 86.957C43.7328 86.8796 43.7156 86.8195 43.6984 86.7679C43.9825 86.596 43.75 86.3725 43.8447 86.1232C43.9739 86.106 44.0686 86.3639 44.1805 86.1576C44.2924 86.2349 44.5076 86.1576 44.5507 86.3467C44.7142 86.5186 44.7487 86.2349 44.8434 86.1576C45.05 86.2349 45.1791 85.9083 45.4029 85.9685C45.5149 85.8567 45.5149 85.6246 45.4029 85.5129C45.4374 85.1518 45.644 85.5902 45.8076 85.4699C46.0486 85.7536 46.3499 85.3237 46.6254 85.3925C47.0128 85.5472 46.6082 85.7707 46.6254 85.9942L46.9181 86.1146C46.987 86.9484 46.8406 87.894 46.6254 88.6332C46.5479 89.0544 46.5479 89.6991 46.436 90.0773C46.5651 90.4212 46.2122 90.6619 46.1347 90.9111C46.2122 90.9627 46.2638 91.0659 46.2122 91.1003C46.0056 91.3066 45.9883 91.6418 45.842 91.8911C45.7731 92.5014 45.6956 93.0086 45.6182 93.5587C45.6612 93.6705 45.9023 93.808 45.6956 93.9025H45.8076C45.9195 94.0745 45.6784 94.0315 45.6182 94.1518C45.6956 94.2636 45.7301 94.4355 45.6612 94.5644C45.6009 94.7364 45.4029 94.8137 45.291 94.9083C45.1963 95.0028 45.4029 95.0802 45.3255 95.2091C45.6956 95.4154 45.1791 95.7421 45.4029 96C45.644 95.8882 45.4804 95.6819 45.6268 95.51C45.687 95.3983 45.7387 95.2091 45.885 95.2091L45.8076 95.063C45.9711 94.8137 45.9195 94.4699 46.1347 94.2636C46.1347 93.7736 46.5307 93.447 46.4704 92.957C46.9181 92.4068 46.8234 91.6418 47.0989 91.0229C47.0989 90.6791 47.5982 90.4727 47.3227 90.1117C47.5638 89.6389 47.6412 89.106 47.7359 88.5988C47.383 88.2206 48.175 88.1776 47.9512 87.765H47.9856C48.1922 87.5931 48.5193 87.404 48.416 87.0601C48.4763 86.8109 48.6571 86.9828 48.7862 87.0258C48.9498 86.9312 48.8379 86.8538 48.8207 86.7249C48.8895 86.4842 49.1908 86.5186 49.3027 86.3467C49.32 86.2521 49.4921 86.1576 49.3802 86.0458C49.5524 85.9341 49.6213 85.8223 49.8279 85.7793C49.8451 85.5387 49.9742 85.0401 49.716 84.7908C49.7762 84.6189 49.8107 84.3954 50.0431 84.3782C49.9915 84.1289 50.1206 84.0945 50.0775 83.8452C50.155 83.7335 50.0603 83.4498 50.3014 83.5014C50.5252 83.3639 50.3961 83.0802 50.4908 82.8911L50.6027 82.9684C50.9384 82.6074 51.3086 82.7965 51.7477 82.6332C51.8768 82.3667 52.1523 82.5215 52.2728 82.2464C52.7377 81.9971 53.1423 82.5129 53.6072 82.4011C53.7535 82.0831 54.2356 82.3839 54.3475 82.0229C54.976 82.1174 55.5872 81.9799 56.2243 81.9799C56.3878 81.851 56.6117 82.0917 56.7064 81.8252C56.9818 82.2636 57.5931 82.0745 57.8944 82.2808C58.2301 82.0143 58.6606 82.3238 58.9705 82.0143" fill="#00B0C7"/>
<path d="M72.986 86.9913C73.1323 87.232 73.3734 86.8881 73.5025 87.0772C73.6833 86.8194 73.8038 87.189 74.0018 87.0772C74.2601 87.2062 74.3031 86.9053 74.527 86.8623C74.9832 86.6732 75.1554 87.0085 75.6117 87.0772C75.4998 86.7076 76.0938 86.6217 75.8269 86.3036H75.913C75.9733 86.3466 75.9388 86.4325 75.956 86.5185C76.0421 86.6045 76.1282 86.7334 76.2573 86.7764C76.5587 86.4755 76.9461 86.8194 77.256 86.5615C77.1699 86.1919 77.4454 86.1317 77.6003 85.8652C77.6434 85.9082 77.695 85.977 77.7811 85.9512C77.9275 85.8824 77.8242 85.7191 77.8672 85.6073C77.4368 84.8509 78.2374 85.8222 78.3407 85.3924C78.3579 85.3065 78.3407 85.2205 78.2546 85.1775L78.685 84.7048C78.797 84.6446 78.642 84.4469 78.8142 84.4469C78.7883 84.189 78.9003 83.7592 78.7281 83.4927C78.8314 83.3638 78.9003 83.5357 78.9863 83.3638C79.0122 83.3208 78.9691 83.295 78.9433 83.252C78.7109 83.209 78.8572 83.0543 78.8142 82.8652C78.444 82.6847 79.0036 82.4182 78.7281 82.2119C78.5043 82.0658 78.2029 82.04 78.0738 81.7391L77.9877 81.8251L78.0308 81.8681C78.0566 81.9368 77.9619 81.954 77.9447 81.997C77.8586 81.954 77.7467 81.9368 77.6864 81.8251C77.8328 81.4984 77.4023 81.3007 77.5487 80.9139C77.0752 81.0858 77.1096 80.4154 76.6792 80.656C76.4381 80.6303 76.55 80.3122 76.2832 80.3122C76.0852 80.6388 75.7408 80.2262 75.4998 80.3552V80.1403C75.3879 80.0371 75.2587 79.9942 75.1124 80.0113C74.923 79.9426 74.8541 79.7277 74.768 79.5815C74.5958 79.6675 74.3548 79.6675 74.2429 79.7964C74.1137 79.7707 74.0018 79.5128 73.8297 79.6675C73.6747 79.7964 73.4595 79.6503 73.3476 79.6245C73.2615 79.6503 73.2184 79.7363 73.1754 79.7964C72.6761 79.6675 72.8224 80.3552 72.4781 80.3552C72.2801 80.4841 72.0907 80.4669 71.9099 80.6131C72.194 80.9225 71.5225 81.1116 71.8668 81.4383C71.5483 81.5414 71.798 81.9368 71.4794 81.954C71.5483 82.3065 71.2212 82.3065 71.049 82.5214C70.9629 82.805 70.8768 83.1919 70.9629 83.4497C71.0232 83.8795 71.3073 84.189 71.4364 84.5758C71.7377 84.7907 71.2556 85.2721 71.7807 85.2721C72.039 85.4268 71.6688 85.53 71.7807 85.7449C71.8238 85.7707 71.841 85.8566 71.9099 85.8308L71.9529 86.1747C72.2112 86.1747 72.3661 86.3638 72.6502 86.3036C72.8224 86.5185 73.0376 86.7162 72.9516 86.9913" fill="#00B0C7"/>
<path d="M94 81.9883C93.9139 81.7906 93.6384 82.0313 93.5695 81.7734L93.1821 82.1603C92.4676 82.3322 91.7531 82.633 91.1849 83.0714C90.7544 82.8909 91.0988 83.4153 90.7544 83.4754C90.5823 83.6044 90.2982 83.4153 90.3584 83.3035C90.2121 83.3293 90.2896 83.6474 90.0571 83.5614C89.6869 83.4926 89.6009 83.7849 89.6611 84.0428C89.1446 84.3694 87.7758 84.4984 87.7758 84.7391C87.8188 84.7133 87.8447 84.7648 87.8619 84.782C87.7069 84.782 87.4745 85.1259 87.4314 84.825L87.1215 85.0915C87.1215 85.0915 87.0182 85.1345 86.8632 85.1345C86.8202 85.1603 86.8202 85.2204 86.8202 85.2634C86.7599 85.4611 86.5189 85.5643 86.3467 85.5213V85.4783L86.0024 85.4353C85.8044 85.6244 85.3309 85.5041 85.3911 85.9081C85.305 85.9941 85.1501 85.8823 85.0898 85.9941C85.0898 86.0371 85.0726 86.0972 85.1329 86.123C85.0296 86.252 84.9865 86.4067 84.7799 86.3895C84.5475 85.8651 84.1945 86.6474 83.9104 86.2176C83.678 86.5872 83.2131 86.5012 82.9979 86.8279C82.4986 86.8279 82.1284 87.3694 81.5516 87.1717C81.3966 87.4124 81.2244 87.2577 80.9834 87.3007C80.8973 87.6445 80.639 87.4124 80.4238 87.6015C80.0536 87.4468 79.8126 87.6015 79.4252 87.6015C79.1239 88.0141 79.2358 87.421 78.8914 87.6617C78.6762 87.6187 78.6332 87.5757 78.4094 87.5328C78.3663 87.8078 77.8584 87.5843 77.9014 87.6875C77.7034 87.8422 77.5054 87.9712 77.2558 87.9024C77.1697 87.8594 76.9545 88.1603 76.9114 88.0743L76.6876 88.1173C76.3863 88.0743 76.3174 88.2204 76.0333 88.1603C75.8009 88.2032 75.775 88.4181 75.732 88.5987C75.5168 88.5299 75.2155 88.7706 75.0002 88.5471V88.633C74.8883 88.676 74.8195 88.762 74.6903 88.719C74.191 88.3494 74.4062 89.1746 73.95 89.1918C74.1308 89.7505 73.3473 89.6216 73.4507 90.103C73.3215 90.1889 73.4076 90.4898 73.1493 90.4124C73.0633 90.6273 73.2957 90.7992 73.3301 91.0141C73.3904 91.186 73.201 91.1689 73.1063 91.1689C73.1063 91.5127 72.9169 91.6846 72.9772 92.0371C73.1493 92.0113 73.0202 92.209 73.1063 92.252L73.3301 92.209C73.6142 92.5184 72.9772 92.4926 73.1063 92.8537L73.4076 92.8967C73.4334 93.0428 73.3473 93.2663 73.5798 93.2405C73.6659 93.4812 73.9241 93.7992 74.2082 93.9282C74.2943 93.911 74.4062 93.7562 74.4751 93.9282L74.4235 93.9711L74.5182 94.0571L74.6042 93.9711C74.7936 94.1001 74.7075 94.4697 75.0347 94.4525C75.2499 94.5127 75.379 94.1431 75.6373 94.2806C75.9214 94.2376 76.0075 94.1001 76.1624 93.8508C76.2916 93.868 76.3346 94.0399 76.3777 94.1087C76.524 94.0055 76.722 94.1517 76.8942 93.9797C77.2213 94.2376 77.6346 93.6961 78.022 93.6359C77.9187 93.5757 77.8928 93.464 77.8498 93.378L78.065 93.2491C78.1167 93.1373 78.022 93.0514 77.9445 93.0342L78.1339 93.1201C78.2286 93.1459 78.4352 93.103 78.5299 93.0772C78.5299 92.6903 78.7279 92.8881 79.0034 92.6044C79.0722 92.6646 79.1325 92.7333 79.2272 92.7763C79.5457 92.4067 79.847 92.1058 80.0881 91.7362C80.2603 91.6073 80.2172 91.6588 80.4324 91.5213C80.6477 91.6932 80.7768 91.4353 80.949 91.3924C81.19 91.2118 80.992 91.1087 81.1211 90.911C81.1642 90.911 81.19 90.9282 81.2072 90.954C81.3364 90.825 81.4052 90.6531 81.4224 90.4812C82.0509 90.825 81.6205 90.06 82.2489 90.06C82.0509 89.8623 82.4125 89.9998 82.4641 89.8279C82.7999 89.7677 83.084 89.166 83.4025 88.9167C83.8329 89.0285 84.1256 88.3838 84.4528 88.1689C84.5216 88.2978 84.5819 88.1431 84.668 88.1259C84.7713 87.6531 85.2964 87.8938 85.4514 87.421C85.6063 87.335 86.0282 86.9654 86.1659 87.0772C86.4931 87.0084 86.7083 86.8881 86.9063 86.6474C87.2937 86.6044 87.3195 86.1058 87.6466 86.08C87.75 86.123 88.189 85.9511 88.3181 85.8221C88.4473 85.9511 88.6022 85.762 88.6625 85.6932C88.7055 85.7362 88.7658 85.762 88.7486 85.8221H88.8347C88.9466 85.6244 89.179 85.6244 89.3512 85.5643C89.4201 85.4353 89.4803 85.1775 89.7214 85.2204L89.7644 84.6101C89.8591 84.6101 89.9624 84.5671 90.0227 84.6531C90.2551 84.5499 90.6081 84.5499 90.6684 84.2147C90.8836 84.0858 91.0558 83.931 91.3657 83.9998C91.3226 83.6818 91.7358 83.7849 91.7531 83.484C92.2093 83.5528 92.4246 83.2262 92.7086 82.9425C93.3113 83.1832 93.1821 82.3838 93.7073 82.4697C93.8106 82.358 94.0516 82.1689 93.9655 81.9969" fill="#00B0C7"/>
<path d="M85.7355 86.6904C85.6319 86.7592 85.7355 86.8881 85.7787 86.9053L85.865 86.8194C85.8909 86.7076 85.7528 86.7506 85.7355 86.6904Z" fill="#00B0C7"/>
<path d="M34.0652 74.8024C33.9877 74.1921 33.299 74.3984 33.0752 73.8397H32.8255C32.0163 73.3583 31.1038 73.6849 30.2859 73.9428C30.0018 74.3554 29.5972 73.9944 29.2701 74.3039C28.943 74.4586 28.5814 74.7079 28.3059 74.9142C28.2026 75.4213 27.6172 75.2666 27.3847 75.6706C26.9027 76.0746 27.1265 76.6592 26.6272 77.089C26.8338 77.2437 26.9543 77.5446 26.7735 77.7766C26.2914 78.0861 27.0232 78.258 26.8252 78.6448C26.9027 79.1262 27.204 79.5044 27.5397 79.9084C27.5655 80.2953 28.1251 80.2695 28.2026 80.6649C28.788 80.768 28.831 81.4729 29.4681 81.4213C29.6489 81.6019 29.8469 81.2408 29.976 81.5245L29.8727 81.6276C29.9502 81.9285 30.0707 82.238 30.3806 82.3927C31.0435 82.4958 31.4998 82.238 32.111 82.0832C32.0852 81.6019 32.6706 81.8511 32.7739 81.4729C33.2818 81.1635 33.9361 80.6907 34.2718 80.1577C34.3493 79.7279 34.7539 79.3153 34.6764 78.9371C34.9778 78.7136 34.6506 78.2064 34.9777 77.9743C35.0036 77.2695 34.9519 76.5818 34.8314 75.9199C34.6248 75.5417 34.4268 74.9572 34.0652 74.8024ZM33.5142 79.2981C32.9805 79.96 32.9461 80.7938 32.068 81.2236C31.9905 80.8712 32.4468 80.7423 32.266 80.364C31.7839 79.6764 31.0177 79.8053 30.4925 79.2981C30.2343 79.1176 29.9071 78.8941 29.5284 78.8425C29.5542 78.1807 28.6933 78.1033 28.8224 77.45C29.1754 77.2953 28.5642 77.1233 28.9257 76.9428C28.7191 76.5904 29.0549 76.2551 29.2357 76.0317C29.9674 75.6276 30.7078 74.9142 31.5686 75.3698L31.8269 75.2666C32.3865 75.3698 32.7653 75.8254 33.0924 76.2294C33.2732 76.556 33.6262 76.8913 33.4196 77.2953C33.5487 77.5703 33.5487 77.8798 33.6262 78.1806C33.4454 78.5589 33.6434 78.8941 33.5229 79.2981" fill="#00B0C7"/>
<path d="M30.9488 89.9225C30.5184 89.6647 30.5184 89.2349 30.5442 88.8051C30.3118 88.6503 29.8039 88.5472 30.0363 88.1432C29.8555 88.0142 29.6317 87.7907 29.4251 87.8853C29.6575 87.4039 29.2701 87.0687 29.1668 86.6475C29.1926 86.5185 29.1926 86.2692 28.9688 86.1403C28.943 85.6761 28.3576 85.3839 28.3576 84.9197C28.2801 84.8423 28.1079 84.7134 28.2543 84.6188C27.8238 84.3695 28.0735 83.785 27.643 83.5529C27.8238 83.0973 27.3159 82.9168 27.2901 82.5386C27.4967 82.2549 26.9113 81.9283 26.9802 81.679C26.8855 81.4727 26.4034 81.2922 26.5755 81.0171L26.3173 80.7076C26.3948 80.424 25.7835 80.2778 26.016 79.848C25.8868 79.616 25.8868 79.4182 25.6027 79.2893C25.4564 79.1346 25.3789 78.9111 25.3531 78.7821C25.2756 78.7306 25.2239 78.6274 25.1551 78.6274C25.1551 78.0945 24.9226 77.8624 24.8968 77.4326C24.6902 77.3036 24.3889 77.2521 24.2856 76.9684C23.8035 76.7191 23.089 76.7707 22.581 77.1231C22.4519 77.3982 22.383 77.6819 22.1248 77.9139C22.2711 78.2922 21.6168 78.6274 22.1248 78.9283C22.3314 79.487 22.1248 80.5013 22.6843 81.0085C22.5122 81.4641 23.3472 81.593 22.9857 82.126C23.5969 82.1776 23.2611 82.8395 23.8465 82.934C23.6657 83.467 24.3803 83.338 24.4319 83.6905C24.079 84.146 24.7935 83.9741 24.7935 84.3008C25.3014 84.4297 25.3014 84.8853 25.6027 85.2119C26.0332 85.6245 26.1365 86.2005 26.5239 86.5787C27.1782 87.1117 27.6947 87.7478 27.9443 88.53C28.2284 88.4268 28.4781 88.7105 28.7105 88.4784C28.8655 88.6074 29.0118 88.8308 29.0118 88.9856C29.0635 88.9856 29.2615 88.9598 29.3648 89.0286L29.2098 89.2349C29.2098 89.2349 29.2787 89.2864 29.2615 89.338H29.3648C29.4681 89.2864 29.4681 89.1833 29.5198 89.1317C29.7522 89.1059 30.0019 89.0801 29.976 89.338C30.4065 89.3896 30.1826 89.742 30.1826 89.9913C30.57 89.9655 30.6906 90.55 30.8455 90.8595C31.0005 91.0056 31.3276 91.0314 31.4568 90.9025C31.3276 90.8251 31.3535 90.6532 31.2071 90.5415C31.1296 90.318 30.9747 90.0601 30.9488 89.8882" fill="#00B0C7"/>
<path d="M18.2681 83.7593L18.3198 83.7077C18.5264 83.4584 18.1648 83.3983 18.0615 83.2005C18.139 83.02 18.5178 82.7965 18.3198 82.4871C17.6311 82.3066 17.7344 81.447 17.3039 81.1203C17.4331 80.914 17.0284 80.7335 17.2523 80.51L16.6927 80.4584C16.8218 80.1834 16.3914 80.0544 16.2364 79.8997C16.2881 79.745 16.443 79.6762 16.3914 79.4957C16.0384 79.2894 15.651 79.702 15.3755 79.3409C15.0398 79.5215 14.6696 79.573 14.3855 79.8997C14.308 79.8223 14.2822 79.745 14.2822 79.6418C14.1014 79.573 13.9034 79.573 13.7743 79.4957C13.4213 79.6762 13.1889 79.2894 12.8618 79.2894C12.7326 79.1862 12.5346 79.2378 12.5604 79.4441C12.3022 79.5988 12.0783 79.5387 11.7943 79.4957C11.691 79.7192 11.3896 79.8051 11.338 80.0544L11.4413 80.1576C11.183 80.8452 10.6062 80.2865 10.0725 80.5616C10.2016 80.8624 9.6937 81.043 10.0208 81.3266C9.64204 81.4728 9.73674 81.7306 9.71092 82.0831C9.60761 82.3667 9.3063 82.5902 9.04803 82.4871L8.99638 82.9942C8.79838 83.02 8.66924 83.1232 8.59176 83.2951L8.74672 83.3467C8.9189 83.553 8.74672 83.6991 8.59176 83.8538C8.56594 84.361 7.78253 84.8424 8.29045 85.4269C8.26463 85.8051 7.78253 85.5043 7.62757 85.7793C7.67923 85.8825 7.83419 86.0544 7.62757 86.1318C7.60175 86.3123 7.83419 86.2349 7.83419 86.3811C7.62757 86.8109 6.81834 86.8624 7.27461 87.4212C6.79251 87.7478 6.66338 88.1862 6.45677 88.6934C6.35346 88.6676 6.23294 88.7192 6.15546 88.6418C5.92302 88.8223 6.15546 89.0716 6.15546 89.3037C6.10381 89.5358 5.92302 89.7593 5.84554 89.9656C6.0005 90.3696 5.57006 90.6447 5.94885 90.9283C5.33762 90.851 5.79389 91.5902 5.46675 91.7879C5.13101 92.1404 4.77804 92.5014 4.29595 92.6991C4.27012 92.9226 4.16682 93.2063 3.99464 93.2579C3.82246 93.8682 3.20263 94.2206 3.28011 94.9856C3.28011 95.4154 3.68472 95.3897 3.73637 95.7937C4.01186 95.7163 4.39065 95.8195 4.59726 95.5444C4.62309 95.1146 5.13101 95.3897 5.31179 95.1404C5.4151 95.0372 5.36345 94.8309 5.26014 94.7364L6.04355 93.8768C6.49981 93.9026 6.80112 93.447 7.21435 93.4126C7.266 92.9828 7.7481 93.1633 8.02358 93.0086C8.41098 92.9828 8.78977 92.3037 9.34934 92.553C9.58178 92.4498 9.53013 92.0974 9.85726 92.2005C10.2361 91.6676 11.3294 92.2779 11.1228 91.2808C11.2002 91.0229 11.6049 91.2034 11.5274 90.9283C11.9837 90.851 11.9837 90.3438 12.4916 90.4728C12.9478 90.4212 12.6982 89.6819 13.2061 89.8109C13.3266 89.6303 13.7915 89.7593 13.6624 89.4498C13.7657 88.6418 14.6266 89.0716 15.212 88.8911C15.6424 88.7106 14.9795 88.4097 15.3583 88.1776C15.4616 88.5301 15.7371 88.298 16.0212 88.3753V88.0659C16.0729 88.0659 16.1503 88.0401 16.1762 88.1175C16.4086 88.0143 16.3053 87.6361 16.6324 87.7134C16.6066 87.4298 17.192 87.5329 16.9337 87.2063C17.8205 86.8538 16.9079 86.192 17.3384 85.659C18.0529 85.6848 17.6397 84.8252 18.2509 84.6447L18.3025 84.6962C18.6039 84.5673 18.5522 84.1117 18.5092 83.8366C18.38 83.8882 18.3284 83.7851 18.2595 83.7335" fill="#00B0C7"/>
<defs>
<linearGradient id="paint0_linear_785_9206" x1="39.3017" y1="43.4478" x2="54.9879" y2="-0.669891" gradientUnits="userSpaceOnUse">
<stop stop-color="white"/>
<stop offset="1" stop-color="#EF8BB6"/>
</linearGradient>
<linearGradient id="paint1_linear_785_9206" x1="46.165" y1="50.2022" x2="3.85524" y2="56.0895" gradientUnits="userSpaceOnUse">
<stop stop-color="white"/>
<stop offset="1" stop-color="#EF8BB6"/>
</linearGradient>
<linearGradient id="paint2_linear_785_9206" x1="41.7207" y1="36.8471" x2="14.8484" y2="6.27785" gradientUnits="userSpaceOnUse">
<stop stop-color="white"/>
<stop offset="1" stop-color="#EF8BB6"/>
</linearGradient>
<linearGradient id="paint3_linear_785_9206" x1="30.8142" y1="49.0411" x2="0.816528" y2="36.3074" gradientUnits="userSpaceOnUse">
<stop stop-color="white"/>
<stop offset="1" stop-color="#EF8BB6"/>
</linearGradient>
<linearGradient id="paint4_linear_785_9206" x1="31.6108" y1="38.7376" x2="26.7622" y2="20.3977" gradientUnits="userSpaceOnUse">
<stop stop-color="white"/>
<stop offset="1" stop-color="#F9C479"/>
</linearGradient>
<linearGradient id="paint5_linear_785_9206" x1="35.4095" y1="44.3261" x2="15.4813" y2="37.2311" gradientUnits="userSpaceOnUse">
<stop stop-color="white"/>
<stop offset="1" stop-color="#F9C479"/>
</linearGradient>
<linearGradient id="paint6_linear_785_9206" x1="44.3897" y1="51.9236" x2="25.7335" y2="55.3022" gradientUnits="userSpaceOnUse">
<stop stop-color="white"/>
<stop offset="1" stop-color="#F9C479"/>
</linearGradient>
<linearGradient id="paint7_linear_785_9206" x1="52.1399" y1="58.6764" x2="37.177" y2="24.6681" gradientUnits="userSpaceOnUse">
<stop stop-color="white"/>
<stop offset="1" stop-color="#F9C479"/>
</linearGradient>
<linearGradient id="paint8_linear_785_9206" x1="8.70307" y1="67.3498" x2="58.8563" y2="56.9298" gradientUnits="userSpaceOnUse">
<stop stop-color="#FFFBCD"/>
<stop offset="1" stop-color="#99D6F6"/>
</linearGradient>
<linearGradient id="paint9_linear_785_9206" x1="46.5076" y1="-0.0679107" x2="73.7373" y2="58.6811" gradientUnits="userSpaceOnUse">
<stop stop-color="#FFFBCD"/>
<stop offset="1" stop-color="#99D6F6"/>
</linearGradient>
</defs>
</svg>
